<?xml version="1.0" standalone="no"?>
<!DOCTYPE svg PUBLIC "-//W3C//DTD SVG 1.1//EN"
 "http://www.w3.org/Graphics/SVG/1.1/DTD/svg11.dtd">
<!-- Created with svg_stack (http://github.com/astraw/svg_stack) -->
<svg xmlns="http://www.w3.org/2000/svg" xmlns:sodipodi="http://sodipodi.sourceforge.net/DTD/sodipodi-0.dtd" xmlns:xlink="http://www.w3.org/1999/xlink" version="1.1" width="2011.25" height="1298.75">
  <defs/>
  <g id="id0:id0" transform="matrix(1.2523915013593796,0,0,1.25,0.0,0.0)"><g id="id0:graph0" class="graph" transform="scale(1 1) rotate(0) translate(4 1035)">
<title>G</title>
<polygon fill="white" stroke="transparent" points="-4,4 -4,-1035 194.62,-1035 194.62,4 -4,4"/>
<text text-anchor="middle" x="95.31" y="-7.8" font-family="Times,serif" font-size="14.00">Legend</text>
<!-- &#45;dependent&#45;&gt; -->
<g id="id0:node1" class="node">
<title>-dependent-&gt;</title>
<text text-anchor="middle" x="95.31" y="-36" font-family="times bold" font-size="20.00" fill="pink">-dependent-&gt;</text>
</g>
<!-- &#45;dependency&#45;&gt; -->
<g id="id0:node2" class="node">
<title>-dependency-&gt;</title>
<text text-anchor="middle" x="95.31" y="-90" font-family="times bold" font-size="20.00" fill="#eec900">-dependency-&gt;</text>
</g>
<!-- abstract&#45;job -->
<g id="id0:node3" class="node">
<title>abstract-job</title>
<ellipse fill="#7f3f3f" stroke="#7f3f3f" cx="95.31" cy="-149" rx="59.59" ry="18"/>
<text text-anchor="middle" x="95.31" y="-145.3" font-family="Times,serif" font-size="14.00">abstract-job</text>
</g>
<!-- job -->
<g id="id0:node4" class="node">
<title>job</title>
<ellipse fill="#7f523f" stroke="#7f523f" cx="95.31" cy="-203" rx="27" ry="18"/>
<text text-anchor="middle" x="95.31" y="-199.3" font-family="Times,serif" font-size="14.00">job</text>
</g>
<!-- semaphore -->
<g id="id0:node5" class="node">
<title>semaphore</title>
<path fill="#7f663f" stroke="#7f663f" d="M137.81,-271.73C137.81,-273.53 118.76,-275 95.31,-275 71.86,-275 52.81,-273.53 52.81,-271.73 52.81,-271.73 52.81,-242.27 52.81,-242.27 52.81,-240.47 71.86,-239 95.31,-239 118.76,-239 137.81,-240.47 137.81,-242.27 137.81,-242.27 137.81,-271.73 137.81,-271.73"/>
<path fill="none" stroke="#7f663f" d="M137.81,-271.73C137.81,-269.92 118.76,-268.45 95.31,-268.45 71.86,-268.45 52.81,-269.92 52.81,-271.73"/>
<text text-anchor="middle" x="95.31" y="-253.3" font-family="Times,serif" font-size="14.00">semaphore</text>
</g>
<!-- secret -->
<g id="id0:node6" class="node">
<title>secret</title>
<path fill="#7f793f" stroke="#7f793f" d="M122.31,-325.73C122.31,-327.53 110.21,-329 95.31,-329 80.41,-329 68.31,-327.53 68.31,-325.73 68.31,-325.73 68.31,-296.27 68.31,-296.27 68.31,-294.47 80.41,-293 95.31,-293 110.21,-293 122.31,-294.47 122.31,-296.27 122.31,-296.27 122.31,-325.73 122.31,-325.73"/>
<path fill="none" stroke="#7f793f" d="M122.31,-325.73C122.31,-323.92 110.21,-322.45 95.31,-322.45 80.41,-322.45 68.31,-323.92 68.31,-325.73"/>
<text text-anchor="middle" x="95.31" y="-307.3" font-family="Times,serif" font-size="14.00">secret</text>
</g>
<!-- nodeset -->
<g id="id0:node7" class="node">
<title>nodeset</title>
<polygon fill="#727f3f" stroke="#727f3f" points="127.81,-383 62.81,-383 62.81,-379 58.81,-379 58.81,-375 62.81,-375 62.81,-355 58.81,-355 58.81,-351 62.81,-351 62.81,-347 127.81,-347 127.81,-383"/>
<polyline fill="none" stroke="#727f3f" points="62.81,-379 66.81,-379 66.81,-375 62.81,-375 "/>
<polyline fill="none" stroke="#727f3f" points="62.81,-355 66.81,-355 66.81,-351 62.81,-351 "/>
<text text-anchor="middle" x="95.31" y="-361.3" font-family="Times,serif" font-size="14.00">nodeset</text>
</g>
<!-- label -->
<g id="id0:node8" class="node">
<title>label</title>
<polygon fill="#5f7f3f" stroke="#5f7f3f" points="122.31,-437 80.31,-437 80.31,-441 68.31,-441 68.31,-401 122.31,-401 122.31,-437"/>
<polyline fill="none" stroke="#5f7f3f" points="68.31,-437 80.31,-437 "/>
<text text-anchor="middle" x="95.31" y="-415.3" font-family="Times,serif" font-size="14.00">label</text>
</g>
<!-- queue -->
<g id="id0:node9" class="node">
<title>queue</title>
<path fill="#4c7f3f" stroke="#4c7f3f" d="M122.81,-487.73C122.81,-489.53 110.49,-491 95.31,-491 80.14,-491 67.81,-489.53 67.81,-487.73 67.81,-487.73 67.81,-458.27 67.81,-458.27 67.81,-456.47 80.14,-455 95.31,-455 110.49,-455 122.81,-456.47 122.81,-458.27 122.81,-458.27 122.81,-487.73 122.81,-487.73"/>
<path fill="none" stroke="#4c7f3f" d="M122.81,-487.73C122.81,-485.92 110.49,-484.45 95.31,-484.45 80.14,-484.45 67.81,-485.92 67.81,-487.73"/>
<text text-anchor="middle" x="95.31" y="-469.3" font-family="Times,serif" font-size="14.00">queue</text>
</g>
<!-- pipeline -->
<g id="id0:node10" class="node">
<title>pipeline</title>
<polygon fill="#3f7f46" stroke="#3f7f46" points="144.88,-527 120.09,-545 70.53,-545 45.75,-527 70.53,-509 120.09,-509 144.88,-527"/>
<text text-anchor="middle" x="95.31" y="-523.3" font-family="Times,serif" font-size="14.00">pipeline</text>
</g>
<!-- project&#45;config -->
<g id="id0:node11" class="node">
<title>project-config</title>
<polygon fill="#3f7f59" stroke="#3f7f59" points="146.81,-599 43.81,-599 43.81,-563 146.81,-563 146.81,-599"/>
<text text-anchor="middle" x="95.31" y="-577.3" font-family="Times,serif" font-size="14.00">project-config</text>
</g>
<!-- project&#45;pipeline -->
<g id="id0:node12" class="node">
<title>project-pipeline</title>
<polygon fill="#3f7f59" stroke="#3f7f59" points="181.42,-635 138.37,-653 52.26,-653 9.2,-635 52.26,-617 138.37,-617 181.42,-635"/>
<text text-anchor="middle" x="95.31" y="-631.3" font-family="Times,serif" font-size="14.00">project-pipeline</text>
</g>
<!-- project&#45;regex -->
<g id="id0:node13" class="node">
<title>project-regex</title>
<polygon fill="#3f7f7f" stroke="#3f7f7f" points="145.81,-707 44.81,-707 44.81,-671 145.81,-671 145.81,-707"/>
<text text-anchor="middle" x="95.31" y="-685.3" font-family="Times,serif" font-size="14.00">project-regex</text>
</g>
<!-- regex&#45;pipeline -->
<g id="id0:node14" class="node">
<title>regex-pipeline</title>
<polygon fill="#3f6c7f" stroke="#3f6c7f" points="175.42,-743 135.36,-761 55.26,-761 15.21,-743 55.26,-725 135.36,-725 175.42,-743"/>
<text text-anchor="middle" x="95.31" y="-739.3" font-family="Times,serif" font-size="14.00">regex-pipeline</text>
</g>
<!-- project&#45;template -->
<g id="id0:node15" class="node">
<title>project-template</title>
<polygon fill="#3f597f" stroke="#3f597f" points="155.81,-815 34.81,-815 34.81,-779 155.81,-779 155.81,-815"/>
<text text-anchor="middle" x="95.31" y="-793.3" font-family="Times,serif" font-size="14.00">project-template</text>
</g>
<!-- template&#45;pipeline -->
<g id="id0:node16" class="node">
<title>template-pipeline</title>
<polygon fill="#3f597f" stroke="#3f597f" points="190.44,-851 142.87,-869 47.75,-869 0.19,-851 47.75,-833 142.87,-833 190.44,-851"/>
<text text-anchor="middle" x="95.31" y="-847.3" font-family="Times,serif" font-size="14.00">template-pipeline</text>
</g>
<!-- repository -->
<g id="id0:node17" class="node">
<title>repository</title>
<path fill="#4c3f7f" stroke="#4c3f7f" d="M135.31,-919.73C135.31,-921.53 117.38,-923 95.31,-923 73.24,-923 55.31,-921.53 55.31,-919.73 55.31,-919.73 55.31,-890.27 55.31,-890.27 55.31,-888.47 73.24,-887 95.31,-887 117.38,-887 135.31,-888.47 135.31,-890.27 135.31,-890.27 135.31,-919.73 135.31,-919.73"/>
<path fill="none" stroke="#4c3f7f" d="M135.31,-919.73C135.31,-917.92 117.38,-916.45 95.31,-916.45 73.24,-916.45 55.31,-917.92 55.31,-919.73"/>
<text text-anchor="middle" x="95.31" y="-901.3" font-family="Times,serif" font-size="14.00">repository</text>
</g>
<!-- trigger -->
<g id="id0:node18" class="node">
<title>trigger</title>
<polygon fill="#5f3f7f" stroke="#5f3f7f" points="124.81,-971 83.81,-971 83.81,-977 65.81,-959 83.81,-941 83.81,-947 124.81,-947 124.81,-971"/>
<text text-anchor="middle" x="95.31" y="-955.3" font-family="Times,serif" font-size="14.00">trigger</text>
</g>
<!-- reporter -->
<g id="id0:node19" class="node">
<title>reporter</title>
<polygon fill="#723f7f" stroke="#723f7f" points="111.81,-1025 60.81,-1025 60.81,-1001 111.81,-1001 111.81,-995 129.81,-1013 111.81,-1031 111.81,-1025"/>
<text text-anchor="middle" x="95.31" y="-1009.3" font-family="Times,serif" font-size="14.00">reporter</text>
</g>
</g>
</g>
  <g id="id1:id1" transform="matrix(1.2500088653111014,0,0,1.25,248.75,216.875)"><g id="id1:graph0" class="graph" transform="scale(1 1) rotate(0) translate(4 688)">
<title>G</title>
<polygon fill="white" stroke="transparent" points="-4,4 -4,-688 1405.99,-688 1405.99,4 -4,4"/>
<!-- base -->
<g id="id1:node1" class="node">
<title>base</title>
<ellipse fill="#7f3f3f" stroke="#7f3f3f" cx="592.49" cy="-666" rx="28.7" ry="18"/>
<text text-anchor="middle" x="592.49" y="-662.3" font-family="Times,serif" font-size="14.00">base</text>
</g>
<!-- zena&#45;job -->
<g id="id1:node2" class="node">
<title>zena-job</title>
<ellipse fill="#7f523f" stroke="#7f523f" cx="275.49" cy="-594" rx="45.49" ry="18"/>
<text text-anchor="middle" x="275.49" y="-590.3" font-family="Times,serif" font-size="14.00">zena-job</text>
</g>
<!-- base&#45;&gt;zena&#45;job -->
<g id="id1:edge34" class="edge">
<title>base-&gt;zena-job</title>
<path fill="none" stroke="pink" d="M565.45,-659.85C511.46,-648.7 390.31,-622.05 322.88,-606.61"/>
<polygon fill="pink" stroke="pink" points="323.47,-603.15 312.94,-604.32 321.9,-609.97 323.47,-603.15"/>
</g>
<!-- wallaby&#45;job -->
<g id="id1:node3" class="node">
<title>wallaby-job</title>
<ellipse fill="#7f523f" stroke="#7f523f" cx="58.49" cy="-378" rx="58.49" ry="18"/>
<text text-anchor="middle" x="58.49" y="-374.3" font-family="Times,serif" font-size="14.00">wallaby-job</text>
</g>
<!-- base&#45;&gt;wallaby&#45;job -->
<g id="id1:edge33" class="edge">
<title>base-&gt;wallaby-job</title>
<path fill="none" stroke="pink" d="M563.98,-663.27C486.54,-657.9 275.11,-640.14 212.49,-612 127.32,-573.72 98.79,-552.71 59.49,-468 50.47,-448.55 48.27,-424.22 49.56,-405.92"/>
<polygon fill="pink" stroke="pink" points="53.05,-406.25 50.7,-395.92 46.09,-405.46 53.05,-406.25"/>
</g>
<!-- linter -->
<g id="id1:node4" class="node">
<title>linter</title>
<ellipse fill="#7f523f" stroke="#7f523f" cx="472.49" cy="-450" rx="32.49" ry="18"/>
<text text-anchor="middle" x="472.49" y="-446.3" font-family="Times,serif" font-size="14.00">linter</text>
</g>
<!-- base&#45;&gt;linter -->
<g id="id1:edge32" class="edge">
<title>base-&gt;linter</title>
<path fill="none" stroke="pink" d="M580.16,-649.61C556.1,-613.36 504.72,-522.27 482.55,-477.16"/>
<polygon fill="pink" stroke="pink" points="485.65,-475.51 478.17,-468.01 479.34,-478.54 485.65,-475.51"/>
</g>
<!-- config&#45;check -->
<g id="id1:node5" class="node">
<title>config-check</title>
<ellipse fill="#7f523f" stroke="#7f523f" cx="481.49" cy="-90" rx="61.19" ry="18"/>
<text text-anchor="middle" x="481.49" y="-86.3" font-family="Times,serif" font-size="14.00">config-check</text>
</g>
<!-- base&#45;&gt;config&#45;check -->
<g id="id1:edge31" class="edge">
<title>base-&gt;config-check</title>
<path fill="none" stroke="pink" d="M593.52,-647.77C597.28,-637.61 603.03,-624.36 606.49,-612 643.41,-480.24 648.49,-443.83 648.49,-307 648.49,-307 648.49,-307 648.49,-233 648.49,-188.87 636.88,-173.97 604.49,-144 585.15,-126.09 558.98,-113.91 535.7,-105.78"/>
<polygon fill="pink" stroke="pink" points="536.52,-102.36 525.93,-102.54 534.32,-109.01 536.52,-102.36"/>
</g>
<!-- log&#45;key -->
<g id="id1:node6" class="node">
<title>log-key</title>
<path fill="#7f793f" stroke="#7f793f" d="M747.49,-608.73C747.49,-610.53 733.6,-612 716.49,-612 699.39,-612 685.49,-610.53 685.49,-608.73 685.49,-608.73 685.49,-579.27 685.49,-579.27 685.49,-577.47 699.39,-576 716.49,-576 733.6,-576 747.49,-577.47 747.49,-579.27 747.49,-579.27 747.49,-608.73 747.49,-608.73"/>
<path fill="none" stroke="#7f793f" d="M747.49,-608.73C747.49,-606.92 733.6,-605.45 716.49,-605.45 699.39,-605.45 685.49,-606.92 685.49,-608.73"/>
<text text-anchor="middle" x="716.49" y="-590.3" font-family="Times,serif" font-size="14.00">log-key</text>
</g>
<!-- base&#45;&gt;log&#45;key -->
<g id="id1:edge1" class="edge">
<title>base-&gt;log-key</title>
<path fill="none" stroke="#eec900" d="M610.41,-651.83C627.64,-641.25 654.01,-626.24 676.21,-614.3"/>
<polygon fill="#eec900" stroke="#eec900" points="677.93,-617.35 685.11,-609.56 674.64,-611.17 677.93,-617.35"/>
</g>
<!-- rhel -->
<g id="id1:node7" class="node">
<title>rhel</title>
<polygon fill="#727f3f" stroke="#727f3f" points="819.49,-612 765.49,-612 765.49,-608 761.49,-608 761.49,-604 765.49,-604 765.49,-584 761.49,-584 761.49,-580 765.49,-580 765.49,-576 819.49,-576 819.49,-612"/>
<polyline fill="none" stroke="#727f3f" points="765.49,-608 769.49,-608 769.49,-604 765.49,-604 "/>
<polyline fill="none" stroke="#727f3f" points="765.49,-584 769.49,-584 769.49,-580 765.49,-580 "/>
<text text-anchor="middle" x="792.49" y="-590.3" font-family="Times,serif" font-size="14.00">rhel</text>
</g>
<!-- base&#45;&gt;rhel -->
<g id="id1:edge3" class="edge">
<title>base-&gt;rhel</title>
<path fill="none" stroke="#eec900" d="M616.78,-656.29C647.73,-646.63 702.01,-630 747.49,-612 750.3,-610.89 753.19,-609.67 756.1,-608.4"/>
<polygon fill="#eec900" stroke="#eec900" points="757.67,-611.53 765.4,-604.29 754.84,-605.13 757.67,-611.53"/>
</g>
<!-- centos -->
<g id="id1:node8" class="node">
<title>centos</title>
<polygon fill="#727f3f" stroke="#727f3f" points="620.49,-396 564.49,-396 564.49,-392 560.49,-392 560.49,-388 564.49,-388 564.49,-368 560.49,-368 560.49,-364 564.49,-364 564.49,-360 620.49,-360 620.49,-396"/>
<polyline fill="none" stroke="#727f3f" points="564.49,-392 568.49,-392 568.49,-388 564.49,-388 "/>
<polyline fill="none" stroke="#727f3f" points="564.49,-368 568.49,-368 568.49,-364 564.49,-364 "/>
<text text-anchor="middle" x="592.49" y="-374.3" font-family="Times,serif" font-size="14.00">centos</text>
</g>
<!-- base&#45;&gt;centos -->
<g id="id1:edge2" class="edge">
<title>base-&gt;centos</title>
<path fill="none" stroke="#eec900" d="M589.08,-647.97C584.91,-600.29 584.65,-465.18 588.3,-406.63"/>
<polygon fill="#eec900" stroke="#eec900" points="591.82,-406.54 589.06,-396.31 584.84,-406.02 591.82,-406.54"/>
</g>
<!-- zena&#45;job&#45;&gt;base -->
<g id="id1:edge10" class="edge">
<title>zena-job-&gt;base</title>
<path fill="none" stroke="#eec900" d="M315.36,-602.82C377.73,-615.93 497.09,-642.27 556.81,-656.09"/>
<polygon fill="#eec900" stroke="#eec900" points="556.02,-659.49 566.55,-658.35 557.6,-652.68 556.02,-659.49"/>
</g>
<!-- check:sftests.com/triple&#45;o -->
<g id="id1:node17" class="node">
<title>check:sftests.com/triple-o</title>
<polygon fill="#3f7f59" stroke="#3f7f59" points="405.16,-522 340.33,-540 210.66,-540 145.83,-522 210.66,-504 340.33,-504 405.16,-522"/>
<text text-anchor="middle" x="275.49" y="-518.3" font-family="Times,serif" font-size="14.00">check:sftests.com/triple-o</text>
</g>
<!-- zena&#45;job&#45;&gt;check:sftests.com/triple&#45;o -->
<g id="id1:edge39" class="edge">
<title>zena-job-&gt;check:sftests.com/triple-o</title>
<path fill="none" stroke="pink" d="M263.81,-576.41C262.13,-568.71 261.62,-559.34 262.27,-550.62"/>
<polygon fill="pink" stroke="pink" points="265.77,-550.82 263.63,-540.45 258.83,-549.89 265.77,-550.82"/>
</g>
<!-- wallaby&#45;job&#45;&gt;base -->
<g id="id1:edge8" class="edge">
<title>wallaby-job-&gt;base</title>
<path fill="none" stroke="#eec900" d="M63.92,-396.26C65.68,-414.85 66.76,-444.87 77.49,-468 116.79,-552.71 145.32,-573.72 230.49,-612 288.29,-637.97 472.87,-655.1 553.91,-661.81"/>
<polygon fill="#eec900" stroke="#eec900" points="553.93,-665.32 564.18,-662.65 554.5,-658.35 553.93,-665.32"/>
</g>
<!-- sftests.com/triple&#45;o -->
<g id="id1:node15" class="node">
<title>sftests.com/triple-o</title>
<polygon fill="#3f7f59" stroke="#3f7f59" points="238.49,-468 104.49,-468 104.49,-432 238.49,-432 238.49,-468"/>
<text text-anchor="middle" x="171.49" y="-446.3" font-family="Times,serif" font-size="14.00">sftests.com/triple-o</text>
</g>
<!-- wallaby&#45;job&#45;&gt;sftests.com/triple&#45;o -->
<g id="id1:edge9" class="edge">
<title>wallaby-job-&gt;sftests.com/triple-o</title>
<path fill="none" stroke="#eec900" d="M88.04,-393.81C104.38,-403.21 124.55,-415.55 141.02,-426.18"/>
<polygon fill="#eec900" stroke="#eec900" points="139.46,-429.34 149.75,-431.88 143.29,-423.48 139.46,-429.34"/>
</g>
<!-- wallaby&#45;job&#45;&gt;check:sftests.com/triple&#45;o -->
<g id="id1:edge38" class="edge">
<title>wallaby-job-&gt;check:sftests.com/triple-o</title>
<path fill="none" stroke="pink" d="M61.12,-396.3C65.07,-416.37 74.45,-449.11 95.49,-468 117.72,-487.95 147.12,-500.41 175.69,-508.19"/>
<polygon fill="pink" stroke="pink" points="175.2,-511.67 185.76,-510.75 176.93,-504.89 175.2,-511.67"/>
</g>
<!-- linter&#45;&gt;base -->
<g id="id1:edge5" class="edge">
<title>linter-&gt;base</title>
<path fill="none" stroke="#eec900" d="M485.13,-466.84C509.36,-503.46 560.57,-594.29 582.57,-639.12"/>
<polygon fill="#eec900" stroke="#eec900" points="579.45,-640.7 586.92,-648.21 585.76,-637.68 579.45,-640.7"/>
</g>
<!-- linter&#45;&gt;centos -->
<g id="id1:edge6" class="edge">
<title>linter-&gt;centos</title>
<path fill="none" stroke="#eec900" d="M490.96,-435C508.18,-424.11 534.08,-408.91 555.48,-397.1"/>
<polygon fill="#eec900" stroke="#eec900" points="557.23,-400.12 564.34,-392.26 553.88,-393.98 557.23,-400.12"/>
</g>
<!-- pod&#45;centos&#45;7 -->
<g id="id1:node9" class="node">
<title>pod-centos-7</title>
<polygon fill="#5f7f3f" stroke="#5f7f3f" points="545.99,-396 460.99,-396 460.99,-400 448.99,-400 448.99,-360 545.99,-360 545.99,-396"/>
<polyline fill="none" stroke="#5f7f3f" points="448.99,-396 460.99,-396 "/>
<text text-anchor="middle" x="497.49" y="-374.3" font-family="Times,serif" font-size="14.00">pod-centos-7</text>
</g>
<!-- linter&#45;&gt;pod&#45;centos&#45;7 -->
<g id="id1:edge7" class="edge">
<title>linter-&gt;pod-centos-7</title>
<path fill="none" stroke="#eec900" d="M472.76,-431.7C474.76,-423.81 477.94,-414.3 481.44,-405.55"/>
<polygon fill="#eec900" stroke="#eec900" points="484.77,-406.67 485.49,-396.1 478.33,-403.92 484.77,-406.67"/>
</g>
<!-- linter&#45;&gt;check:sftests.com/triple&#45;o -->
<g id="id1:edge36" class="edge">
<title>linter-&gt;check:sftests.com/triple-o</title>
<path fill="none" stroke="pink" d="M445.89,-460.45C417.13,-470.67 370.42,-487.27 333.17,-500.5"/>
<polygon fill="pink" stroke="pink" points="331.69,-497.32 323.43,-503.97 334.03,-503.92 331.69,-497.32"/>
</g>
<!-- check:common -->
<g id="id1:node20" class="node">
<title>check:common</title>
<polygon fill="#3f597f" stroke="#3f597f" points="430.6,-378 390.05,-396 308.94,-396 268.39,-378 308.94,-360 390.05,-360 430.6,-378"/>
<text text-anchor="middle" x="349.49" y="-374.3" font-family="Times,serif" font-size="14.00">check:common</text>
</g>
<!-- linter&#45;&gt;check:common -->
<g id="id1:edge37" class="edge">
<title>linter-&gt;check:common</title>
<path fill="none" stroke="pink" d="M446.02,-439.41C425.33,-429.76 397.49,-414.51 376.72,-401.74"/>
<polygon fill="pink" stroke="pink" points="378.34,-398.63 368.01,-396.27 374.61,-404.55 378.34,-398.63"/>
</g>
<!-- config&#45;check&#45;&gt;base -->
<g id="id1:edge4" class="edge">
<title>config-check-&gt;base</title>
<path fill="none" stroke="#eec900" d="M532.72,-99.98C562.13,-107.66 597.85,-121.19 622.49,-144 654.88,-173.97 666.49,-188.87 666.49,-233 666.49,-307 666.49,-307 666.49,-307 666.49,-443.83 661.41,-480.24 624.49,-612 621.68,-622.04 617.37,-632.66 612.62,-641.73"/>
<polygon fill="#eec900" stroke="#eec900" points="609.51,-640.13 607.58,-650.54 615.58,-643.61 609.51,-640.13"/>
</g>
<!-- check:sftests.com/config -->
<g id="id1:node18" class="node">
<title>check:sftests.com/config</title>
<polygon fill="#3f7f59" stroke="#3f7f59" points="604.66,-162 543.07,-180 419.91,-180 358.33,-162 419.91,-144 543.07,-144 604.66,-162"/>
<text text-anchor="middle" x="481.49" y="-158.3" font-family="Times,serif" font-size="14.00">check:sftests.com/config</text>
</g>
<!-- config&#45;check&#45;&gt;check:sftests.com/config -->
<g id="id1:edge35" class="edge">
<title>config-check-&gt;check:sftests.com/config</title>
<path fill="none" stroke="pink" d="M481.49,-108.1C481.49,-115.79 481.49,-125.05 481.49,-133.67"/>
<polygon fill="pink" stroke="pink" points="477.99,-133.7 481.49,-143.7 484.99,-133.7 477.99,-133.7"/>
</g>
<!-- log&#45;key&#45;&gt;base -->
<g id="id1:edge40" class="edge">
<title>log-key-&gt;base</title>
<path fill="none" stroke="pink" d="M693.1,-611.5C673.57,-623.25 645.77,-638.91 624.25,-650.25"/>
<polygon fill="pink" stroke="pink" points="622.42,-647.25 615.16,-654.97 625.65,-653.47 622.42,-647.25"/>
</g>
<!-- rhel&#45;&gt;base -->
<g id="id1:edge43" class="edge">
<title>rhel-&gt;base</title>
<path fill="none" stroke="pink" d="M765.2,-612.12C719.29,-630.27 664.5,-647 628.97,-656.6"/>
<polygon fill="pink" stroke="pink" points="627.81,-653.28 619.04,-659.22 629.6,-660.05 627.81,-653.28"/>
</g>
<!-- cloud&#45;rhel&#45;7 -->
<g id="id1:node10" class="node">
<title>cloud-rhel-7</title>
<polygon fill="#5f7f3f" stroke="#5f7f3f" points="838.49,-540 758.49,-540 758.49,-544 746.49,-544 746.49,-504 838.49,-504 838.49,-540"/>
<polyline fill="none" stroke="#5f7f3f" points="746.49,-540 758.49,-540 "/>
<text text-anchor="middle" x="792.49" y="-518.3" font-family="Times,serif" font-size="14.00">cloud-rhel-7</text>
</g>
<!-- rhel&#45;&gt;cloud&#45;rhel&#45;7 -->
<g id="id1:edge12" class="edge">
<title>rhel-&gt;cloud-rhel-7</title>
<path fill="none" stroke="#eec900" d="M786.58,-575.7C785.78,-567.98 785.56,-558.71 785.9,-550.11"/>
<polygon fill="#eec900" stroke="#eec900" points="789.39,-550.32 786.6,-540.1 782.41,-549.84 789.39,-550.32"/>
</g>
<!-- centos&#45;&gt;base -->
<g id="id1:edge41" class="edge">
<title>centos-&gt;base</title>
<path fill="none" stroke="pink" d="M595.93,-396.31C600.09,-444.31 600.33,-579.44 596.67,-637.7"/>
<polygon fill="pink" stroke="pink" points="593.15,-637.74 595.91,-647.97 600.13,-638.25 593.15,-637.74"/>
</g>
<!-- centos&#45;&gt;linter -->
<g id="id1:edge42" class="edge">
<title>centos-&gt;linter</title>
<path fill="none" stroke="pink" d="M569.16,-396.05C550.98,-407.34 525.71,-422.06 505.49,-433.11"/>
<polygon fill="pink" stroke="pink" points="503.74,-430.08 496.6,-437.91 507.06,-436.24 503.74,-430.08"/>
</g>
<!-- cloud&#45;centos&#45;7 -->
<g id="id1:node11" class="node">
<title>cloud-centos-7</title>
<polygon fill="#5f7f3f" stroke="#5f7f3f" points="619.99,-324 524.99,-324 524.99,-328 512.99,-328 512.99,-288 619.99,-288 619.99,-324"/>
<polyline fill="none" stroke="#5f7f3f" points="512.99,-324 524.99,-324 "/>
<text text-anchor="middle" x="566.49" y="-302.3" font-family="Times,serif" font-size="14.00">cloud-centos-7</text>
</g>
<!-- centos&#45;&gt;cloud&#45;centos&#45;7 -->
<g id="id1:edge11" class="edge">
<title>centos-&gt;cloud-centos-7</title>
<path fill="none" stroke="#eec900" d="M580.15,-359.7C576.45,-351.9 572.74,-342.51 569.88,-333.83"/>
<polygon fill="#eec900" stroke="#eec900" points="573.18,-332.67 566.95,-324.1 566.48,-334.69 573.18,-332.67"/>
</g>
<!-- pod&#45;centos&#45;7&#45;&gt;linter -->
<g id="id1:edge46" class="edge">
<title>pod-centos-7-&gt;linter</title>
<path fill="none" stroke="pink" d="M497.23,-396.29C495.13,-404.56 491.74,-414.63 488.03,-423.74"/>
<polygon fill="pink" stroke="pink" points="484.73,-422.55 483.93,-433.12 491.14,-425.36 484.73,-422.55"/>
</g>
<!-- cloud&#45;rhel&#45;7&#45;&gt;rhel -->
<g id="id1:edge45" class="edge">
<title>cloud-rhel-7-&gt;rhel</title>
<path fill="none" stroke="pink" d="M798.39,-540.1C799.2,-547.79 799.43,-557.05 799.1,-565.67"/>
<polygon fill="pink" stroke="pink" points="795.6,-565.48 798.41,-575.7 802.59,-565.96 795.6,-565.48"/>
</g>
<!-- cloud&#45;centos&#45;7&#45;&gt;centos -->
<g id="id1:edge44" class="edge">
<title>cloud-centos-7-&gt;centos</title>
<path fill="none" stroke="pink" d="M578.74,-324.1C582.44,-331.88 586.16,-341.26 589.04,-349.95"/>
<polygon fill="pink" stroke="pink" points="585.74,-351.14 591.98,-359.7 592.44,-349.11 585.74,-351.14"/>
</g>
<!-- queue -->
<g id="id1:node12" class="node">
<title>queue</title>
<path fill="#4c7f3f" stroke="#4c7f3f" d="M193.99,-392.73C193.99,-394.53 181.67,-396 166.49,-396 151.32,-396 138.99,-394.53 138.99,-392.73 138.99,-392.73 138.99,-363.27 138.99,-363.27 138.99,-361.47 151.32,-360 166.49,-360 181.67,-360 193.99,-361.47 193.99,-363.27 193.99,-363.27 193.99,-392.73 193.99,-392.73"/>
<path fill="none" stroke="#4c7f3f" d="M193.99,-392.73C193.99,-390.92 181.67,-389.45 166.49,-389.45 151.32,-389.45 138.99,-390.92 138.99,-392.73"/>
<text text-anchor="middle" x="166.49" y="-374.3" font-family="Times,serif" font-size="14.00">queue</text>
</g>
<!-- queue&#45;&gt;sftests.com/triple&#45;o -->
<g id="id1:edge47" class="edge">
<title>queue-&gt;sftests.com/triple-o</title>
<path fill="none" stroke="pink" d="M173.61,-396.1C174.97,-403.79 175.86,-413.05 176.15,-421.67"/>
<polygon fill="pink" stroke="pink" points="172.65,-421.71 176.17,-431.7 179.65,-421.69 172.65,-421.71"/>
</g>
<!-- periodic -->
<g id="id1:node13" class="node">
<title>periodic</title>
<polygon fill="#3f7f46" stroke="#3f7f46" points="914.56,-666 889.53,-684 839.46,-684 814.43,-666 839.46,-648 889.53,-648 914.56,-666"/>
<text text-anchor="middle" x="864.49" y="-662.3" font-family="Times,serif" font-size="14.00">periodic</text>
</g>
<!-- timer -->
<g id="id1:node24" class="node">
<title>timer</title>
<polygon fill="#5f3f7f" stroke="#5f3f7f" points="891.49,-606 855.49,-606 855.49,-612 837.49,-594 855.49,-576 855.49,-582 891.49,-582 891.49,-606"/>
<text text-anchor="middle" x="864.49" y="-590.3" font-family="Times,serif" font-size="14.00">timer</text>
</g>
<!-- periodic&#45;&gt;timer -->
<g id="id1:edge22" class="edge">
<title>periodic-&gt;timer</title>
<path fill="none" stroke="#eec900" d="M858.58,-647.7C857.78,-639.98 857.56,-630.71 857.9,-622.11"/>
<polygon fill="#eec900" stroke="#eec900" points="861.39,-622.32 858.6,-612.1 854.41,-621.84 861.39,-622.32"/>
</g>
<!-- check -->
<g id="id1:node14" class="node">
<title>check</title>
<polygon fill="#3f7f46" stroke="#3f7f46" points="359.55,-90 340.52,-108 302.47,-108 283.44,-90 302.47,-72 340.52,-72 359.55,-90"/>
<text text-anchor="middle" x="321.49" y="-86.3" font-family="Times,serif" font-size="14.00">check</text>
</g>
<!-- check&#45;&gt;check:sftests.com/triple&#45;o -->
<g id="id1:edge51" class="edge">
<title>check-&gt;check:sftests.com/triple-o</title>
<path fill="none" stroke="pink" d="M307.5,-108.05C284.01,-132.69 240.49,-181.05 240.49,-233 240.49,-307 240.49,-307 240.49,-307 240.49,-375.42 262.34,-453.67 272.1,-493.92"/>
<polygon fill="pink" stroke="pink" points="268.71,-494.83 274.4,-503.77 275.53,-493.24 268.71,-494.83"/>
</g>
<!-- check&#45;&gt;check:sftests.com/config -->
<g id="id1:edge50" class="edge">
<title>check-&gt;check:sftests.com/config</title>
<path fill="none" stroke="pink" d="M348.33,-100.63C373.1,-110.62 410.07,-126.59 438.84,-139.59"/>
<polygon fill="pink" stroke="pink" points="437.7,-142.92 448.25,-143.88 440.6,-136.55 437.7,-142.92"/>
</g>
<!-- check&#45;&gt;check:common -->
<g id="id1:edge52" class="edge">
<title>check-&gt;check:common</title>
<path fill="none" stroke="pink" d="M326.63,-108.31C335.48,-156.31 348.96,-291.44 350.99,-349.7"/>
<polygon fill="pink" stroke="pink" points="347.5,-350.05 351.24,-359.97 354.5,-349.88 347.5,-350.05"/>
</g>
<!-- gerrit -->
<g id="id1:node25" class="node">
<title>gerrit</title>
<polygon fill="#5f3f7f" stroke="#5f3f7f" points="312.49,-30 276.49,-30 276.49,-36 258.49,-18 276.49,0 276.49,-6 312.49,-6 312.49,-30"/>
<text text-anchor="middle" x="285.49" y="-14.3" font-family="Times,serif" font-size="14.00">gerrit</text>
</g>
<!-- check&#45;&gt;gerrit -->
<g id="id1:edge18" class="edge">
<title>check-&gt;gerrit</title>
<path fill="none" stroke="#eec900" d="M298.18,-75.5C290.35,-67.1 283.51,-56 279.55,-45.86"/>
<polygon fill="#eec900" stroke="#eec900" points="282.87,-44.74 276.62,-36.18 276.17,-46.77 282.87,-44.74"/>
</g>
<!-- check&#45;&gt;gerrit -->
<g id="id1:edge20" class="edge">
<title>check-&gt;gerrit</title>
<path fill="none" stroke="#eec900" d="M306.68,-71.7C301.76,-63.73 296.59,-54.1 292.44,-45.26"/>
<polygon fill="#eec900" stroke="#eec900" points="295.64,-43.84 288.4,-36.1 289.24,-46.67 295.64,-43.84"/>
</g>
<!-- elastic -->
<g id="id1:node26" class="node">
<title>elastic</title>
<polygon fill="#723f7f" stroke="#723f7f" points="367.99,-30 330.99,-30 330.99,-6 367.99,-6 367.99,0 385.99,-18 367.99,-36 367.99,-30"/>
<text text-anchor="middle" x="358.49" y="-14.3" font-family="Times,serif" font-size="14.00">elastic</text>
</g>
<!-- check&#45;&gt;elastic -->
<g id="id1:edge19" class="edge">
<title>check-&gt;elastic</title>
<path fill="none" stroke="#eec900" d="M312.89,-71.7C314.71,-63.39 319.47,-53.28 325.69,-44.14"/>
<polygon fill="#eec900" stroke="#eec900" points="328.53,-46.19 331.77,-36.1 322.94,-41.97 328.53,-46.19"/>
</g>
<!-- check&#45;&gt;elastic -->
<g id="id1:edge21" class="edge">
<title>check-&gt;elastic</title>
<path fill="none" stroke="#eec900" d="M324.73,-71.7C328.19,-63.56 333.2,-53.69 338.38,-44.7"/>
<polygon fill="#eec900" stroke="#eec900" points="341.39,-46.48 343.56,-36.1 335.4,-42.86 341.39,-46.48"/>
</g>
<!-- sftests.com/triple&#45;o&#45;&gt;wallaby&#45;job -->
<g id="id1:edge48" class="edge">
<title>sftests.com/triple-o-&gt;wallaby-job</title>
<path fill="none" stroke="pink" d="M137.95,-431.88C121.79,-422.47 102.67,-410.71 87.18,-400.67"/>
<polygon fill="pink" stroke="pink" points="88.81,-397.55 78.53,-394.99 84.97,-403.4 88.81,-397.55"/>
</g>
<!-- sftests.com/triple&#45;o&#45;&gt;queue -->
<g id="id1:edge15" class="edge">
<title>sftests.com/triple-o-&gt;queue</title>
<path fill="none" stroke="#eec900" d="M164.34,-431.7C163,-423.98 162.11,-414.71 161.84,-406.11"/>
<polygon fill="#eec900" stroke="#eec900" points="165.34,-406.1 161.82,-396.1 158.34,-406.11 165.34,-406.1"/>
</g>
<!-- sftests.com/triple&#45;o&#45;&gt;check:sftests.com/triple&#45;o -->
<g id="id1:edge16" class="edge">
<title>sftests.com/triple-o-&gt;check:sftests.com/triple-o</title>
<path fill="none" stroke="#eec900" d="M202.8,-468.1C217.04,-477.06 233.69,-488.15 247.51,-497.86"/>
<polygon fill="#eec900" stroke="#eec900" points="245.53,-500.75 255.7,-503.7 249.59,-495.04 245.53,-500.75"/>
</g>
<!-- sftests.com/config -->
<g id="id1:node16" class="node">
<title>sftests.com/config</title>
<polygon fill="#3f7f59" stroke="#3f7f59" points="513.99,-252 388.99,-252 388.99,-216 513.99,-216 513.99,-252"/>
<text text-anchor="middle" x="451.49" y="-230.3" font-family="Times,serif" font-size="14.00">sftests.com/config</text>
</g>
<!-- sftests.com/config&#45;&gt;check:sftests.com/config -->
<g id="id1:edge14" class="edge">
<title>sftests.com/config-&gt;check:sftests.com/config</title>
<path fill="none" stroke="#eec900" d="M452.99,-215.7C455.59,-207.73 459.5,-198.1 463.68,-189.26"/>
<polygon fill="#eec900" stroke="#eec900" points="466.92,-190.61 468.27,-180.1 460.66,-187.48 466.92,-190.61"/>
</g>
<!-- common -->
<g id="id1:node19" class="node">
<title>common</title>
<polygon fill="#3f597f" stroke="#3f597f" points="469.49,-324 399.49,-324 399.49,-288 469.49,-288 469.49,-324"/>
<text text-anchor="middle" x="434.49" y="-302.3" font-family="Times,serif" font-size="14.00">common</text>
</g>
<!-- sftests.com/config&#45;&gt;common -->
<g id="id1:edge13" class="edge">
<title>sftests.com/config-&gt;common</title>
<path fill="none" stroke="#eec900" d="M453.24,-252.1C452.16,-259.88 450.12,-269.26 447.66,-277.95"/>
<polygon fill="#eec900" stroke="#eec900" points="444.25,-277.11 444.61,-287.7 450.93,-279.19 444.25,-277.11"/>
</g>
<!-- check:sftests.com/triple&#45;o&#45;&gt;zena&#45;job -->
<g id="id1:edge27" class="edge">
<title>check:sftests.com/triple-o-&gt;zena-job</title>
<path fill="none" stroke="#eec900" d="M275.49,-540.1C275.49,-547.79 275.49,-557.05 275.49,-565.67"/>
<polygon fill="#eec900" stroke="#eec900" points="271.99,-565.7 275.49,-575.7 278.99,-565.7 271.99,-565.7"/>
</g>
<!-- check:sftests.com/triple&#45;o&#45;&gt;zena&#45;job -->
<g id="id1:edge57" class="edge">
<title>check:sftests.com/triple-o-&gt;zena-job</title>
<path fill="none" stroke="pink" d="M287.36,-540.45C288.95,-548.27 289.38,-557.67 288.65,-566.34"/>
<polygon fill="pink" stroke="pink" points="285.16,-566.01 287.17,-576.41 292.09,-567.02 285.16,-566.01"/>
</g>
<!-- check:sftests.com/triple&#45;o&#45;&gt;wallaby&#45;job -->
<g id="id1:edge26" class="edge">
<title>check:sftests.com/triple-o-&gt;wallaby-job</title>
<path fill="none" stroke="#eec900" d="M178.46,-512.79C142.83,-505.68 104.77,-492.48 77.49,-468 59.63,-451.97 50.17,-425.96 48.47,-406.19"/>
<polygon fill="#eec900" stroke="#eec900" points="51.97,-405.9 48.32,-395.95 44.97,-406 51.97,-405.9"/>
</g>
<!-- check:sftests.com/triple&#45;o&#45;&gt;wallaby&#45;job -->
<g id="id1:edge56" class="edge">
<title>check:sftests.com/triple-o-&gt;wallaby-job</title>
<path fill="none" stroke="pink" d="M194.06,-508.52C165.96,-500.77 136.04,-488.24 113.49,-468 95.28,-451.65 85.8,-424.92 77.66,-405.02"/>
<polygon fill="pink" stroke="pink" points="80.78,-403.41 73.62,-395.6 74.35,-406.17 80.78,-403.41"/>
</g>
<!-- check:sftests.com/triple&#45;o&#45;&gt;linter -->
<g id="id1:edge25" class="edge">
<title>check:sftests.com/triple-o-&gt;linter</title>
<path fill="none" stroke="#eec900" d="M311.89,-503.88C346.68,-490.52 398.27,-472.42 433.82,-461.23"/>
<polygon fill="#eec900" stroke="#eec900" points="434.87,-464.57 443.39,-458.27 432.81,-457.88 434.87,-464.57"/>
</g>
<!-- check:sftests.com/triple&#45;o&#45;&gt;linter -->
<g id="id1:edge55" class="edge">
<title>check:sftests.com/triple-o-&gt;linter</title>
<path fill="none" stroke="pink" d="M335.21,-503.97C369.71,-492.56 411.51,-477.67 440.1,-466.58"/>
<polygon fill="pink" stroke="pink" points="441.6,-469.75 449.63,-462.83 439.04,-463.24 441.6,-469.75"/>
</g>
<!-- check:sftests.com/triple&#45;o&#45;&gt;check -->
<g id="id1:edge28" class="edge">
<title>check:sftests.com/triple-o-&gt;check</title>
<path fill="none" stroke="#eec900" d="M264.54,-503.77C248.42,-467.73 222.49,-381.53 222.49,-307 222.49,-307 222.49,-307 222.49,-233 222.49,-183.64 261.76,-137.53 291.02,-111.92"/>
<polygon fill="#eec900" stroke="#eec900" points="293.55,-114.36 298.96,-105.25 289.05,-109 293.55,-114.36"/>
</g>
<!-- check:sftests.com/triple&#45;o&#45;&gt;sftests.com/triple&#45;o -->
<g id="id1:edge58" class="edge">
<title>check:sftests.com/triple-o-&gt;sftests.com/triple-o</title>
<path fill="none" stroke="pink" d="M244.16,-503.88C229.87,-494.89 213.17,-483.76 199.33,-474.03"/>
<polygon fill="pink" stroke="pink" points="201.3,-471.14 191.13,-468.19 197.24,-476.84 201.3,-471.14"/>
</g>
<!-- check:sftests.com/config&#45;&gt;config&#45;check -->
<g id="id1:edge23" class="edge">
<title>check:sftests.com/config-&gt;config-check</title>
<path fill="none" stroke="#eec900" d="M469.66,-143.7C468.07,-135.98 467.62,-126.71 468.3,-118.11"/>
<polygon fill="#eec900" stroke="#eec900" points="471.79,-118.49 469.7,-108.1 464.85,-117.52 471.79,-118.49"/>
</g>
<!-- check:sftests.com/config&#45;&gt;config&#45;check -->
<g id="id1:edge53" class="edge">
<title>check:sftests.com/config-&gt;config-check</title>
<path fill="none" stroke="pink" d="M493.33,-143.7C494.92,-135.98 495.37,-126.71 494.69,-118.11"/>
<polygon fill="pink" stroke="pink" points="498.14,-117.52 493.28,-108.1 491.2,-118.49 498.14,-117.52"/>
</g>
<!-- check:sftests.com/config&#45;&gt;check -->
<g id="id1:edge24" class="edge">
<title>check:sftests.com/config-&gt;check</title>
<path fill="none" stroke="#eec900" d="M436.46,-143.88C410.44,-132.99 378.35,-118.95 354.63,-108.07"/>
<polygon fill="#eec900" stroke="#eec900" points="355.89,-104.8 345.34,-103.78 352.95,-111.15 355.89,-104.8"/>
</g>
<!-- check:sftests.com/config&#45;&gt;sftests.com/config -->
<g id="id1:edge54" class="edge">
<title>check:sftests.com/config-&gt;sftests.com/config</title>
<path fill="none" stroke="pink" d="M480.06,-180.1C477.49,-188.04 473.59,-197.67 469.41,-206.51"/>
<polygon fill="pink" stroke="pink" points="466.17,-205.19 464.83,-215.7 472.43,-208.32 466.17,-205.19"/>
</g>
<!-- common&#45;&gt;sftests.com/config -->
<g id="id1:edge49" class="edge">
<title>common-&gt;sftests.com/config</title>
<path fill="none" stroke="pink" d="M432.78,-287.7C433.87,-279.9 435.93,-270.51 438.4,-261.83"/>
<polygon fill="pink" stroke="pink" points="441.79,-262.69 441.45,-252.1 435.11,-260.6 441.79,-262.69"/>
</g>
<!-- common&#45;&gt;check:common -->
<g id="id1:edge17" class="edge">
<title>common-&gt;check:common</title>
<path fill="none" stroke="#eec900" d="M419.62,-324.1C409.87,-332.89 396.88,-343.73 384.69,-353.31"/>
<polygon fill="#eec900" stroke="#eec900" points="382.2,-350.81 376.42,-359.7 386.47,-356.35 382.2,-350.81"/>
</g>
<!-- check:common&#45;&gt;linter -->
<g id="id1:edge29" class="edge">
<title>check:common-&gt;linter</title>
<path fill="none" stroke="#eec900" d="M379.61,-396.14C398.46,-406.86 422.67,-420.65 441.65,-431.45"/>
<polygon fill="#eec900" stroke="#eec900" points="440.08,-434.58 450.5,-436.49 443.54,-428.5 440.08,-434.58"/>
</g>
<!-- check:common&#45;&gt;linter -->
<g id="id1:edge59" class="edge">
<title>check:common-&gt;linter</title>
<path fill="none" stroke="pink" d="M391.05,-395.96C410.34,-405.75 432.32,-418.14 448.85,-428.48"/>
<polygon fill="pink" stroke="pink" points="447.12,-431.52 457.42,-433.98 450.9,-425.63 447.12,-431.52"/>
</g>
<!-- check:common&#45;&gt;check -->
<g id="id1:edge30" class="edge">
<title>check:common-&gt;check</title>
<path fill="none" stroke="#eec900" d="M344.41,-359.97C335.57,-312.29 322.09,-177.18 320.01,-118.63"/>
<polygon fill="#eec900" stroke="#eec900" points="323.5,-118.22 319.75,-108.31 316.5,-118.39 323.5,-118.22"/>
</g>
<!-- check:common&#45;&gt;common -->
<g id="id1:edge60" class="edge">
<title>check:common-&gt;common</title>
<path fill="none" stroke="pink" d="M364.59,-359.7C374.39,-350.88 387.39,-340.03 399.58,-330.47"/>
<polygon fill="pink" stroke="pink" points="402.05,-332.98 407.83,-324.1 397.78,-327.44 402.05,-332.98"/>
</g>
<!-- sftests.com/zuul&#45;jobs -->
<g id="id1:node21" class="node">
<title>sftests.com/zuul-jobs</title>
<path fill="#4c3f7f" stroke="#4c3f7f" d="M1076.49,-680.73C1076.49,-682.53 1044.22,-684 1004.49,-684 964.77,-684 932.49,-682.53 932.49,-680.73 932.49,-680.73 932.49,-651.27 932.49,-651.27 932.49,-649.47 964.77,-648 1004.49,-648 1044.22,-648 1076.49,-649.47 1076.49,-651.27 1076.49,-651.27 1076.49,-680.73 1076.49,-680.73"/>
<path fill="none" stroke="#4c3f7f" d="M1076.49,-680.73C1076.49,-678.92 1044.22,-677.45 1004.49,-677.45 964.77,-677.45 932.49,-678.92 932.49,-680.73"/>
<text text-anchor="middle" x="1004.49" y="-662.3" font-family="Times,serif" font-size="14.00">sftests.com/zuul-jobs</text>
</g>
<!-- sftests.com/sf&#45;jobs -->
<g id="id1:node22" class="node">
<title>sftests.com/sf-jobs</title>
<path fill="#4c3f7f" stroke="#4c3f7f" d="M1222.49,-680.73C1222.49,-682.53 1193.81,-684 1158.49,-684 1123.18,-684 1094.49,-682.53 1094.49,-680.73 1094.49,-680.73 1094.49,-651.27 1094.49,-651.27 1094.49,-649.47 1123.18,-648 1158.49,-648 1193.81,-648 1222.49,-649.47 1222.49,-651.27 1222.49,-651.27 1222.49,-680.73 1222.49,-680.73"/>
<path fill="none" stroke="#4c3f7f" d="M1222.49,-680.73C1222.49,-678.92 1193.81,-677.45 1158.49,-677.45 1123.18,-677.45 1094.49,-678.92 1094.49,-680.73"/>
<text text-anchor="middle" x="1158.49" y="-662.3" font-family="Times,serif" font-size="14.00">sftests.com/sf-jobs</text>
</g>
<!-- localhost/project&#45;config -->
<g id="id1:node23" class="node">
<title>localhost/project-config</title>
<path fill="#4c3f7f" stroke="#4c3f7f" d="M1401.99,-680.73C1401.99,-682.53 1365.91,-684 1321.49,-684 1277.08,-684 1240.99,-682.53 1240.99,-680.73 1240.99,-680.73 1240.99,-651.27 1240.99,-651.27 1240.99,-649.47 1277.08,-648 1321.49,-648 1365.91,-648 1401.99,-649.47 1401.99,-651.27 1401.99,-651.27 1401.99,-680.73 1401.99,-680.73"/>
<path fill="none" stroke="#4c3f7f" d="M1401.99,-680.73C1401.99,-678.92 1365.91,-677.45 1321.49,-677.45 1277.08,-677.45 1240.99,-678.92 1240.99,-680.73"/>
<text text-anchor="middle" x="1321.49" y="-662.3" font-family="Times,serif" font-size="14.00">localhost/project-config</text>
</g>
<!-- timer&#45;&gt;periodic -->
<g id="id1:edge63" class="edge">
<title>timer-&gt;periodic</title>
<path fill="none" stroke="pink" d="M870.39,-612.1C871.2,-619.79 871.43,-629.05 871.1,-637.67"/>
<polygon fill="pink" stroke="pink" points="867.6,-637.48 870.41,-647.7 874.59,-637.96 867.6,-637.48"/>
</g>
<!-- gerrit&#45;&gt;check -->
<g id="id1:edge61" class="edge">
<title>gerrit-&gt;check</title>
<path fill="none" stroke="pink" d="M300.19,-36.1C305.1,-44.04 310.27,-53.67 314.44,-62.51"/>
<polygon fill="pink" stroke="pink" points="311.26,-63.97 318.51,-71.7 317.66,-61.14 311.26,-63.97"/>
</g>
<!-- gerrit&#45;&gt;check -->
<g id="id1:edge62" class="edge">
<title>gerrit-&gt;check</title>
<path fill="none" stroke="pink" d="M311.98,-36.1C318.42,-43.88 323.94,-53.26 327.36,-61.95"/>
<polygon fill="pink" stroke="pink" points="324.07,-63.16 330.34,-71.7 330.76,-61.11 324.07,-63.16"/>
</g>
<!-- elastic&#45;&gt;check -->
<g id="id1:edge64" class="edge">
<title>elastic-&gt;check</title>
<path fill="none" stroke="pink" d="M355.35,-36.1C351.91,-44.21 346.92,-54.08 341.74,-63.08"/>
<polygon fill="pink" stroke="pink" points="338.71,-61.32 336.56,-71.7 344.71,-64.93 338.71,-61.32"/>
</g>
<!-- elastic&#45;&gt;check -->
<g id="id1:edge65" class="edge">
<title>elastic-&gt;check</title>
<path fill="none" stroke="pink" d="M367.14,-36.08C365.08,-45.75 358.99,-57.91 351.23,-68.13"/>
<polygon fill="pink" stroke="pink" points="348.49,-65.95 344.69,-75.83 353.83,-70.48 348.49,-65.95"/>
</g>
</g>
</g>
</svg>
