<?xml version="1.0" standalone="no"?>
<!DOCTYPE svg PUBLIC "-//W3C//DTD SVG 1.1//EN"
 "http://www.w3.org/Graphics/SVG/1.1/DTD/svg11.dtd">
<!-- Created with svg_stack (http://github.com/astraw/svg_stack) -->
<svg xmlns="http://www.w3.org/2000/svg" xmlns:sodipodi="http://sodipodi.sourceforge.net/DTD/sodipodi-0.dtd" xmlns:xlink="http://www.w3.org/1999/xlink" version="1.1" width="1533.75" height="1231.25">
  <defs/>
  <g id="id0:id0" transform="matrix(1.2523915013593796,0,0,1.25,0.0,0.0)"><g id="id0:graph0" class="graph" transform="scale(1 1) rotate(0) translate(4 981)">
<title>G</title>
<polygon fill="white" stroke="transparent" points="-4,4 -4,-981 194.62,-981 194.62,4 -4,4"/>
<text text-anchor="middle" x="95.31" y="-7.8" font-family="Times,serif" font-size="14.00">Legend</text>
<!-- &#45;dependent&#45;&gt; -->
<g id="id0:node1" class="node">
<title>-dependent-&gt;</title>
<text text-anchor="middle" x="95.31" y="-36" font-family="times bold" font-size="20.00" fill="pink">-dependent-&gt;</text>
</g>
<!-- &#45;dependency&#45;&gt; -->
<g id="id0:node2" class="node">
<title>-dependency-&gt;</title>
<text text-anchor="middle" x="95.31" y="-90" font-family="times bold" font-size="20.00" fill="#eec900">-dependency-&gt;</text>
</g>
<!-- abstract&#45;job -->
<g id="id0:node3" class="node">
<title>abstract-job</title>
<ellipse fill="#7f3f3f" stroke="#7f3f3f" cx="95.31" cy="-149" rx="59.59" ry="18"/>
<text text-anchor="middle" x="95.31" y="-145.3" font-family="Times,serif" font-size="14.00">abstract-job</text>
</g>
<!-- job -->
<g id="id0:node4" class="node">
<title>job</title>
<ellipse fill="#7f563f" stroke="#7f563f" cx="95.31" cy="-203" rx="27" ry="18"/>
<text text-anchor="middle" x="95.31" y="-199.3" font-family="Times,serif" font-size="14.00">job</text>
</g>
<!-- semaphore -->
<g id="id0:node5" class="node">
<title>semaphore</title>
<path fill="#7f693f" stroke="#7f693f" d="M137.81,-271.73C137.81,-273.53 118.76,-275 95.31,-275 71.86,-275 52.81,-273.53 52.81,-271.73 52.81,-271.73 52.81,-242.27 52.81,-242.27 52.81,-240.47 71.86,-239 95.31,-239 118.76,-239 137.81,-240.47 137.81,-242.27 137.81,-242.27 137.81,-271.73 137.81,-271.73"/>
<path fill="none" stroke="#7f693f" d="M137.81,-271.73C137.81,-269.92 118.76,-268.45 95.31,-268.45 71.86,-268.45 52.81,-269.92 52.81,-271.73"/>
<text text-anchor="middle" x="95.31" y="-253.3" font-family="Times,serif" font-size="14.00">semaphore</text>
</g>
<!-- secret -->
<g id="id0:node6" class="node">
<title>secret</title>
<path fill="#7e7f3f" stroke="#7e7f3f" d="M122.31,-325.73C122.31,-327.53 110.21,-329 95.31,-329 80.41,-329 68.31,-327.53 68.31,-325.73 68.31,-325.73 68.31,-296.27 68.31,-296.27 68.31,-294.47 80.41,-293 95.31,-293 110.21,-293 122.31,-294.47 122.31,-296.27 122.31,-296.27 122.31,-325.73 122.31,-325.73"/>
<path fill="none" stroke="#7e7f3f" d="M122.31,-325.73C122.31,-323.92 110.21,-322.45 95.31,-322.45 80.41,-322.45 68.31,-323.92 68.31,-325.73"/>
<text text-anchor="middle" x="95.31" y="-307.3" font-family="Times,serif" font-size="14.00">secret</text>
</g>
<!-- nodeset -->
<g id="id0:node7" class="node">
<title>nodeset</title>
<polygon fill="#6b7f3f" stroke="#6b7f3f" points="127.81,-383 62.81,-383 62.81,-379 58.81,-379 58.81,-375 62.81,-375 62.81,-355 58.81,-355 58.81,-351 62.81,-351 62.81,-347 127.81,-347 127.81,-383"/>
<polyline fill="none" stroke="#6b7f3f" points="62.81,-379 66.81,-379 66.81,-375 62.81,-375 "/>
<polyline fill="none" stroke="#6b7f3f" points="62.81,-355 66.81,-355 66.81,-351 62.81,-351 "/>
<text text-anchor="middle" x="95.31" y="-361.3" font-family="Times,serif" font-size="14.00">nodeset</text>
</g>
<!-- label -->
<g id="id0:node8" class="node">
<title>label</title>
<polygon fill="#547f3f" stroke="#547f3f" points="122.31,-437 80.31,-437 80.31,-441 68.31,-441 68.31,-401 122.31,-401 122.31,-437"/>
<polyline fill="none" stroke="#547f3f" points="68.31,-437 80.31,-437 "/>
<text text-anchor="middle" x="95.31" y="-415.3" font-family="Times,serif" font-size="14.00">label</text>
</g>
<!-- queue -->
<g id="id0:node9" class="node">
<title>queue</title>
<path fill="#417f3f" stroke="#417f3f" d="M122.81,-487.73C122.81,-489.53 110.49,-491 95.31,-491 80.14,-491 67.81,-489.53 67.81,-487.73 67.81,-487.73 67.81,-458.27 67.81,-458.27 67.81,-456.47 80.14,-455 95.31,-455 110.49,-455 122.81,-456.47 122.81,-458.27 122.81,-458.27 122.81,-487.73 122.81,-487.73"/>
<path fill="none" stroke="#417f3f" d="M122.81,-487.73C122.81,-485.92 110.49,-484.45 95.31,-484.45 80.14,-484.45 67.81,-485.92 67.81,-487.73"/>
<text text-anchor="middle" x="95.31" y="-469.3" font-family="Times,serif" font-size="14.00">queue</text>
</g>
<!-- pipeline -->
<g id="id0:node10" class="node">
<title>pipeline</title>
<polygon fill="#3f7f55" stroke="#3f7f55" points="144.88,-527 120.09,-545 70.53,-545 45.75,-527 70.53,-509 120.09,-509 144.88,-527"/>
<text text-anchor="middle" x="95.31" y="-523.3" font-family="Times,serif" font-size="14.00">pipeline</text>
</g>
<!-- project -->
<g id="id0:node11" class="node">
<title>project</title>
<polygon fill="#3f7f68" stroke="#3f7f68" points="125.31,-599 65.31,-599 65.31,-563 125.31,-563 125.31,-599"/>
<text text-anchor="middle" x="95.31" y="-577.3" font-family="Times,serif" font-size="14.00">project</text>
</g>
<!-- project&#45;pipeline -->
<g id="id0:node12" class="node">
<title>project-pipeline</title>
<polygon fill="#3f7f68" stroke="#3f7f68" points="181.42,-635 138.37,-653 52.26,-653 9.2,-635 52.26,-617 138.37,-617 181.42,-635"/>
<text text-anchor="middle" x="95.31" y="-631.3" font-family="Times,serif" font-size="14.00">project-pipeline</text>
</g>
<!-- project&#45;regex -->
<g id="id0:node13" class="node">
<title>project-regex</title>
<polygon fill="#3f687f" stroke="#3f687f" points="145.81,-707 44.81,-707 44.81,-671 145.81,-671 145.81,-707"/>
<text text-anchor="middle" x="95.31" y="-685.3" font-family="Times,serif" font-size="14.00">project-regex</text>
</g>
<!-- regex&#45;pipeline -->
<g id="id0:node14" class="node">
<title>regex-pipeline</title>
<polygon fill="#3f557f" stroke="#3f557f" points="175.42,-743 135.36,-761 55.26,-761 15.21,-743 55.26,-725 135.36,-725 175.42,-743"/>
<text text-anchor="middle" x="95.31" y="-739.3" font-family="Times,serif" font-size="14.00">regex-pipeline</text>
</g>
<!-- project&#45;template -->
<g id="id0:node15" class="node">
<title>project-template</title>
<polygon fill="#413f7f" stroke="#413f7f" points="155.81,-815 34.81,-815 34.81,-779 155.81,-779 155.81,-815"/>
<text text-anchor="middle" x="95.31" y="-793.3" font-family="Times,serif" font-size="14.00">project-template</text>
</g>
<!-- template&#45;pipeline -->
<g id="id0:node16" class="node">
<title>template-pipeline</title>
<polygon fill="#413f7f" stroke="#413f7f" points="190.44,-851 142.87,-869 47.75,-869 0.19,-851 47.75,-833 142.87,-833 190.44,-851"/>
<text text-anchor="middle" x="95.31" y="-847.3" font-family="Times,serif" font-size="14.00">template-pipeline</text>
</g>
<!-- trigger -->
<g id="id0:node17" class="node">
<title>trigger</title>
<polygon fill="#6b3f7f" stroke="#6b3f7f" points="124.81,-917 83.81,-917 83.81,-923 65.81,-905 83.81,-887 83.81,-893 124.81,-893 124.81,-917"/>
<text text-anchor="middle" x="95.31" y="-901.3" font-family="Times,serif" font-size="14.00">trigger</text>
</g>
<!-- reporter -->
<g id="id0:node18" class="node">
<title>reporter</title>
<polygon fill="#7e3f7f" stroke="#7e3f7f" points="111.81,-971 60.81,-971 60.81,-947 111.81,-947 111.81,-941 129.81,-959 111.81,-977 111.81,-971"/>
<text text-anchor="middle" x="95.31" y="-955.3" font-family="Times,serif" font-size="14.00">reporter</text>
</g>
</g>
</g>
  <g id="id1:id1" transform="matrix(1.2506082725060828,0,0,1.25,248.75,93.125)"><g id="id1:graph0" class="graph" transform="scale(1 1) rotate(0) translate(4 832)">
<title>G</title>
<polygon fill="white" stroke="transparent" points="-4,4 -4,-832 1023.5,-832 1023.5,4 -4,4"/>
<!-- base -->
<g id="id1:node1" class="node">
<title>base</title>
<ellipse fill="#7f3f3f" stroke="#7f3f3f" cx="647" cy="-738" rx="28.7" ry="18"/>
<text text-anchor="middle" x="647" y="-734.3" font-family="Times,serif" font-size="14.00">base</text>
</g>
<!-- zena&#45;job -->
<g id="id1:node2" class="node">
<title>zena-job</title>
<ellipse fill="#7f563f" stroke="#7f563f" cx="647" cy="-666" rx="45.49" ry="18"/>
<text text-anchor="middle" x="647" y="-662.3" font-family="Times,serif" font-size="14.00">zena-job</text>
</g>
<!-- base&#45;&gt;zena&#45;job -->
<g id="id1:edge30" class="edge">
<title>base-&gt;zena-job</title>
<path fill="none" stroke="pink" d="M641.12,-720.05C640.3,-712.35 640.06,-703.03 640.39,-694.36"/>
<polygon fill="pink" stroke="pink" points="643.89,-694.49 641.09,-684.28 636.91,-694.01 643.89,-694.49"/>
</g>
<!-- wallaby&#45;job -->
<g id="id1:node3" class="node">
<title>wallaby-job</title>
<ellipse fill="#7f563f" stroke="#7f563f" cx="818" cy="-234" rx="58.49" ry="18"/>
<text text-anchor="middle" x="818" y="-230.3" font-family="Times,serif" font-size="14.00">wallaby-job</text>
</g>
<!-- base&#45;&gt;wallaby&#45;job -->
<g id="id1:edge29" class="edge">
<title>base-&gt;wallaby-job</title>
<path fill="none" stroke="pink" d="M670.82,-727.71C715.83,-710.22 808,-667.49 808,-595 808,-595 808,-595 808,-377 808,-337 808.4,-290.65 810.99,-262.08"/>
<polygon fill="pink" stroke="pink" points="814.48,-262.37 812.09,-252.05 807.52,-261.61 814.48,-262.37"/>
</g>
<!-- linter -->
<g id="id1:node4" class="node">
<title>linter</title>
<ellipse fill="#7f563f" stroke="#7f563f" cx="375" cy="-522" rx="32.49" ry="18"/>
<text text-anchor="middle" x="375" y="-518.3" font-family="Times,serif" font-size="14.00">linter</text>
</g>
<!-- base&#45;&gt;linter -->
<g id="id1:edge28" class="edge">
<title>base-&gt;linter</title>
<path fill="none" stroke="pink" d="M618.61,-734.95C557.05,-728.62 412.99,-703.82 353,-612 340.43,-592.77 346.61,-566.24 355.84,-547.16"/>
<polygon fill="pink" stroke="pink" points="359.01,-548.65 360.7,-538.2 352.86,-545.31 359.01,-548.65"/>
</g>
<!-- config&#45;check -->
<g id="id1:node5" class="node">
<title>config-check</title>
<ellipse fill="#7f563f" stroke="#7f563f" cx="375" cy="-18" rx="61.19" ry="18"/>
<text text-anchor="middle" x="375" y="-14.3" font-family="Times,serif" font-size="14.00">config-check</text>
</g>
<!-- base&#45;&gt;config&#45;check -->
<g id="id1:edge27" class="edge">
<title>base-&gt;config-check</title>
<path fill="none" stroke="pink" d="M674.61,-733.28C707.21,-727.87 760.9,-714.85 796,-684 954.51,-544.7 993.27,-391.43 876,-216 779.1,-71.03 558.65,-32.68 445.19,-22.58"/>
<polygon fill="pink" stroke="pink" points="445.47,-19.09 435.21,-21.74 444.88,-26.06 445.47,-19.09"/>
</g>
<!-- log&#45;key -->
<g id="id1:node6" class="node">
<title>log-key</title>
<path fill="#7e7f3f" stroke="#7e7f3f" d="M62,-248.73C62,-250.53 48.11,-252 31,-252 13.89,-252 0,-250.53 0,-248.73 0,-248.73 0,-219.27 0,-219.27 0,-217.47 13.89,-216 31,-216 48.11,-216 62,-217.47 62,-219.27 62,-219.27 62,-248.73 62,-248.73"/>
<path fill="none" stroke="#7e7f3f" d="M62,-248.73C62,-246.92 48.11,-245.45 31,-245.45 13.89,-245.45 0,-246.92 0,-248.73"/>
<text text-anchor="middle" x="31" y="-230.3" font-family="Times,serif" font-size="14.00">log-key</text>
</g>
<!-- base&#45;&gt;log&#45;key -->
<g id="id1:edge1" class="edge">
<title>base-&gt;log-key</title>
<path fill="none" stroke="#eec900" d="M618.33,-737.04C518.34,-736.79 187.37,-732.42 96,-684 50.55,-659.91 22,-646.44 22,-595 22,-595 22,-595 22,-377 22,-337 22,-290.65 24.29,-262.08"/>
<polygon fill="#eec900" stroke="#eec900" points="27.78,-262.35 25.29,-252.05 20.82,-261.65 27.78,-262.35"/>
</g>
<!-- rhel -->
<g id="id1:node7" class="node">
<title>rhel</title>
<polygon fill="#6b7f3f" stroke="#6b7f3f" points="966,-684 912,-684 912,-680 908,-680 908,-676 912,-676 912,-656 908,-656 908,-652 912,-652 912,-648 966,-648 966,-684"/>
<polyline fill="none" stroke="#6b7f3f" points="912,-680 916,-680 916,-676 912,-676 "/>
<polyline fill="none" stroke="#6b7f3f" points="912,-656 916,-656 916,-652 912,-652 "/>
<text text-anchor="middle" x="939" y="-662.3" font-family="Times,serif" font-size="14.00">rhel</text>
</g>
<!-- base&#45;&gt;rhel -->
<g id="id1:edge3" class="edge">
<title>base-&gt;rhel</title>
<path fill="none" stroke="#eec900" d="M674.11,-732.04C719.44,-724.3 812.43,-707.74 889,-684 893.26,-682.68 897.68,-681.09 902.08,-679.42"/>
<polygon fill="#eec900" stroke="#eec900" points="903.57,-682.6 911.62,-675.7 901.03,-676.07 903.57,-682.6"/>
</g>
<!-- centos -->
<g id="id1:node8" class="node">
<title>centos</title>
<polygon fill="#6b7f3f" stroke="#6b7f3f" points="140,-252 84,-252 84,-248 80,-248 80,-244 84,-244 84,-224 80,-224 80,-220 84,-220 84,-216 140,-216 140,-252"/>
<polyline fill="none" stroke="#6b7f3f" points="84,-248 88,-248 88,-244 84,-244 "/>
<polyline fill="none" stroke="#6b7f3f" points="84,-224 88,-224 88,-220 84,-220 "/>
<text text-anchor="middle" x="112" y="-230.3" font-family="Times,serif" font-size="14.00">centos</text>
</g>
<!-- base&#45;&gt;centos -->
<g id="id1:edge2" class="edge">
<title>base-&gt;centos</title>
<path fill="none" stroke="#eec900" d="M618.24,-736.39C526.8,-733.97 245.2,-723.15 165,-684 115.29,-659.73 78,-650.32 78,-595 78,-595 78,-595 78,-377 78,-336.42 88.02,-290.3 97.66,-261.92"/>
<polygon fill="#eec900" stroke="#eec900" points="101.03,-262.91 101.17,-252.32 94.45,-260.51 101.03,-262.91"/>
</g>
<!-- zena&#45;job&#45;&gt;base -->
<g id="id1:edge9" class="edge">
<title>zena-job-&gt;base</title>
<path fill="none" stroke="#eec900" d="M652.91,-684.28C653.71,-692.03 653.94,-701.36 653.59,-710.01"/>
<polygon fill="#eec900" stroke="#eec900" points="650.09,-709.83 652.88,-720.05 657.08,-710.33 650.09,-709.83"/>
</g>
<!-- check:sftests.com/triple&#45;o -->
<g id="id1:node18" class="node">
<title>check:sftests.com/triple-o</title>
<polygon fill="#3f7f68" stroke="#3f7f68" points="776.67,-594 711.83,-612 582.17,-612 517.33,-594 582.17,-576 711.83,-576 776.67,-594"/>
<text text-anchor="middle" x="647" y="-590.3" font-family="Times,serif" font-size="14.00">check:sftests.com/triple-o</text>
</g>
<!-- zena&#45;job&#45;&gt;check:sftests.com/triple&#45;o -->
<g id="id1:edge35" class="edge">
<title>zena-job-&gt;check:sftests.com/triple-o</title>
<path fill="none" stroke="pink" d="M641.12,-648.05C640.3,-640.35 640.06,-631.03 640.39,-622.36"/>
<polygon fill="pink" stroke="pink" points="643.89,-622.49 641.09,-612.28 636.91,-622.01 643.89,-622.49"/>
</g>
<!-- wallaby&#45;job&#45;&gt;base -->
<g id="id1:edge8" class="edge">
<title>wallaby-job-&gt;base</title>
<path fill="none" stroke="#eec900" d="M823.51,-252.05C826.51,-278.71 826,-331.88 826,-377 826,-595 826,-595 826,-595 826,-666.89 735.34,-709.51 682.93,-727.27"/>
<polygon fill="#eec900" stroke="#eec900" points="681.73,-723.98 673.3,-730.4 683.9,-730.64 681.73,-723.98"/>
</g>
<!-- wallaby&#45;job&#45;&gt;check:sftests.com/triple&#45;o -->
<g id="id1:edge34" class="edge">
<title>wallaby-job-&gt;check:sftests.com/triple-o</title>
<path fill="none" stroke="pink" d="M811.8,-252.01C797.99,-277.77 769,-328.8 769,-377 769,-451 769,-451 769,-451 769,-502.04 723.74,-545.35 688.23,-570.27"/>
<polygon fill="pink" stroke="pink" points="686.22,-567.4 679.9,-575.91 690.15,-573.2 686.22,-567.4"/>
</g>
<!-- linter&#45;&gt;base -->
<g id="id1:edge5" class="edge">
<title>linter-&gt;base</title>
<path fill="none" stroke="#eec900" d="M372.6,-540.22C366.5,-559.32 356.82,-590.3 371,-612 424.78,-694.31 546.11,-722.76 608.55,-732.34"/>
<polygon fill="#eec900" stroke="#eec900" points="608.37,-735.85 618.77,-733.81 609.37,-728.92 608.37,-735.85"/>
</g>
<!-- linter&#45;&gt;centos -->
<g id="id1:edge6" class="edge">
<title>linter-&gt;centos</title>
<path fill="none" stroke="#eec900" d="M345.8,-513.77C320.38,-505.49 284.24,-490.15 259,-468 189.64,-407.12 137.45,-308.62 118.7,-261.61"/>
<polygon fill="#eec900" stroke="#eec900" points="121.93,-260.25 115.12,-252.13 115.38,-262.73 121.93,-260.25"/>
</g>
<!-- pod&#45;centos&#45;7 -->
<g id="id1:node9" class="node">
<title>pod-centos-7</title>
<polygon fill="#547f3f" stroke="#547f3f" points="571.5,-468 486.5,-468 486.5,-472 474.5,-472 474.5,-432 571.5,-432 571.5,-468"/>
<polyline fill="none" stroke="#547f3f" points="474.5,-468 486.5,-468 "/>
<text text-anchor="middle" x="523" y="-446.3" font-family="Times,serif" font-size="14.00">pod-centos-7</text>
</g>
<!-- linter&#45;&gt;pod&#45;centos&#45;7 -->
<g id="id1:edge7" class="edge">
<title>linter-&gt;pod-centos-7</title>
<path fill="none" stroke="#eec900" d="M396.46,-508.32C416.19,-498.29 445.98,-484.05 471.75,-472.27"/>
<polygon fill="#eec900" stroke="#eec900" points="473.38,-475.38 481.04,-468.06 470.49,-469.01 473.38,-475.38"/>
</g>
<!-- linter&#45;&gt;check:sftests.com/triple&#45;o -->
<g id="id1:edge32" class="edge">
<title>linter-&gt;check:sftests.com/triple-o</title>
<path fill="none" stroke="pink" d="M404.76,-529.59C445.91,-539.52 521.09,-558.7 576.87,-573.37"/>
<polygon fill="pink" stroke="pink" points="576.13,-576.8 586.7,-575.97 577.92,-570.03 576.13,-576.8"/>
</g>
<!-- check:common -->
<g id="id1:node21" class="node">
<title>check:common</title>
<polygon fill="#413f7f" stroke="#413f7f" points="456.11,-450 415.55,-468 334.45,-468 293.89,-450 334.45,-432 415.55,-432 456.11,-450"/>
<text text-anchor="middle" x="375" y="-446.3" font-family="Times,serif" font-size="14.00">check:common</text>
</g>
<!-- linter&#45;&gt;check:common -->
<g id="id1:edge33" class="edge">
<title>linter-&gt;check:common</title>
<path fill="none" stroke="pink" d="M369.12,-504.05C368.3,-496.35 368.06,-487.03 368.39,-478.36"/>
<polygon fill="pink" stroke="pink" points="371.89,-478.49 369.09,-468.28 364.91,-478.01 371.89,-478.49"/>
</g>
<!-- config&#45;check&#45;&gt;base -->
<g id="id1:edge4" class="edge">
<title>config-check-&gt;base</title>
<path fill="none" stroke="#eec900" d="M435.57,-21.01C549.07,-28.37 791.14,-62.12 894,-216 1011.27,-391.43 972.51,-544.7 814,-684 778.04,-715.6 722.57,-728.49 685.4,-733.66"/>
<polygon fill="#eec900" stroke="#eec900" points="684.91,-730.19 675.43,-734.92 685.79,-737.14 684.91,-730.19"/>
</g>
<!-- check:sftests.com/config -->
<g id="id1:node19" class="node">
<title>check:sftests.com/config</title>
<polygon fill="#3f7f68" stroke="#3f7f68" points="347.16,-90 285.58,-108 162.42,-108 100.84,-90 162.42,-72 285.58,-72 347.16,-90"/>
<text text-anchor="middle" x="224" y="-86.3" font-family="Times,serif" font-size="14.00">check:sftests.com/config</text>
</g>
<!-- config&#45;check&#45;&gt;check:sftests.com/config -->
<g id="id1:edge31" class="edge">
<title>config-check-&gt;check:sftests.com/config</title>
<path fill="none" stroke="pink" d="M347.73,-34.28C327.79,-44.07 300.27,-56.92 276.21,-67.7"/>
<polygon fill="pink" stroke="pink" points="274.55,-64.61 266.84,-71.88 277.39,-71.01 274.55,-64.61"/>
</g>
<!-- log&#45;key&#45;&gt;base -->
<g id="id1:edge36" class="edge">
<title>log-key-&gt;base</title>
<path fill="none" stroke="pink" d="M36.71,-252.05C40,-278.71 40,-331.89 40,-377 40,-595 40,-595 40,-595 40,-646.44 68.55,-659.91 114,-684 200.31,-729.74 500.37,-736.17 608.18,-736.95"/>
<polygon fill="pink" stroke="pink" points="608.28,-740.45 618.3,-737.01 608.32,-733.45 608.28,-740.45"/>
</g>
<!-- rhel&#45;&gt;base -->
<g id="id1:edge39" class="edge">
<title>rhel-&gt;base</title>
<path fill="none" stroke="pink" d="M911.91,-682.39C910.26,-682.96 908.62,-683.5 907,-684 829.99,-707.87 736.38,-724.48 684.98,-732.17"/>
<polygon fill="pink" stroke="pink" points="684.36,-728.72 674.97,-733.63 685.37,-735.65 684.36,-728.72"/>
</g>
<!-- cloud&#45;rhel&#45;7 -->
<g id="id1:node10" class="node">
<title>cloud-rhel-7</title>
<polygon fill="#547f3f" stroke="#547f3f" points="1004,-612 924,-612 924,-616 912,-616 912,-576 1004,-576 1004,-612"/>
<polyline fill="none" stroke="#547f3f" points="912,-612 924,-612 "/>
<text text-anchor="middle" x="958" y="-590.3" font-family="Times,serif" font-size="14.00">cloud-rhel-7</text>
</g>
<!-- rhel&#45;&gt;cloud&#45;rhel&#45;7 -->
<g id="id1:edge11" class="edge">
<title>rhel-&gt;cloud-rhel-7</title>
<path fill="none" stroke="#eec900" d="M937.78,-647.7C939.09,-639.9 941.42,-630.51 944.13,-621.83"/>
<polygon fill="#eec900" stroke="#eec900" points="947.54,-622.7 947.46,-612.1 940.91,-620.43 947.54,-622.7"/>
</g>
<!-- centos&#45;&gt;base -->
<g id="id1:edge37" class="edge">
<title>centos-&gt;base</title>
<path fill="none" stroke="pink" d="M112.71,-252.32C108.64,-278.89 96,-331.44 96,-377 96,-595 96,-595 96,-595 96,-650.32 133.29,-659.73 183,-684 258.23,-720.73 510.68,-732.52 608.23,-735.84"/>
<polygon fill="pink" stroke="pink" points="608.15,-739.34 618.26,-736.17 608.38,-732.34 608.15,-739.34"/>
</g>
<!-- centos&#45;&gt;linter -->
<g id="id1:edge38" class="edge">
<title>centos-&gt;linter</title>
<path fill="none" stroke="pink" d="M124.08,-252.13C147.89,-293.96 202.55,-402.65 277,-468 295.88,-484.57 320.86,-497.33 340.98,-506.17"/>
<polygon fill="pink" stroke="pink" points="339.85,-509.49 350.42,-510.2 342.59,-503.05 339.85,-509.49"/>
</g>
<!-- cloud&#45;centos&#45;7 -->
<g id="id1:node11" class="node">
<title>cloud-centos-7</title>
<polygon fill="#547f3f" stroke="#547f3f" points="165.5,-180 70.5,-180 70.5,-184 58.5,-184 58.5,-144 165.5,-144 165.5,-180"/>
<polyline fill="none" stroke="#547f3f" points="58.5,-180 70.5,-180 "/>
<text text-anchor="middle" x="112" y="-158.3" font-family="Times,serif" font-size="14.00">cloud-centos-7</text>
</g>
<!-- centos&#45;&gt;cloud&#45;centos&#45;7 -->
<g id="id1:edge10" class="edge">
<title>centos-&gt;cloud-centos-7</title>
<path fill="none" stroke="#eec900" d="M106.08,-215.7C105.29,-207.98 105.06,-198.71 105.4,-190.11"/>
<polygon fill="#eec900" stroke="#eec900" points="108.9,-190.32 106.1,-180.1 101.92,-189.84 108.9,-190.32"/>
</g>
<!-- pod&#45;centos&#45;7&#45;&gt;linter -->
<g id="id1:edge42" class="edge">
<title>pod-centos-7-&gt;linter</title>
<path fill="none" stroke="pink" d="M492.86,-468.04C468.91,-479.96 435.52,-495.7 410.33,-506.91"/>
<polygon fill="pink" stroke="pink" points="408.85,-503.74 401.11,-510.97 411.67,-510.14 408.85,-503.74"/>
</g>
<!-- cloud&#45;rhel&#45;7&#45;&gt;rhel -->
<g id="id1:edge41" class="edge">
<title>cloud-rhel-7-&gt;rhel</title>
<path fill="none" stroke="pink" d="M959.25,-612.1C957.94,-619.96 955.59,-629.46 952.85,-638.23"/>
<polygon fill="pink" stroke="pink" points="949.53,-637.1 949.61,-647.7 956.16,-639.37 949.53,-637.1"/>
</g>
<!-- cloud&#45;centos&#45;7&#45;&gt;centos -->
<g id="id1:edge40" class="edge">
<title>cloud-centos-7-&gt;centos</title>
<path fill="none" stroke="pink" d="M117.9,-180.1C118.7,-187.79 118.94,-197.05 118.6,-205.67"/>
<polygon fill="pink" stroke="pink" points="115.11,-205.48 117.92,-215.7 122.09,-205.96 115.11,-205.48"/>
</g>
<!-- queue -->
<g id="id1:node12" class="node">
<title>queue</title>
<path fill="#417f3f" stroke="#417f3f" d="M702.5,-176.73C702.5,-178.53 690.17,-180 675,-180 659.83,-180 647.5,-178.53 647.5,-176.73 647.5,-176.73 647.5,-147.27 647.5,-147.27 647.5,-145.47 659.83,-144 675,-144 690.17,-144 702.5,-145.47 702.5,-147.27 702.5,-147.27 702.5,-176.73 702.5,-176.73"/>
<path fill="none" stroke="#417f3f" d="M702.5,-176.73C702.5,-174.92 690.17,-173.45 675,-173.45 659.83,-173.45 647.5,-174.92 647.5,-176.73"/>
<text text-anchor="middle" x="675" y="-158.3" font-family="Times,serif" font-size="14.00">queue</text>
</g>
<!-- sftests.com/triple&#45;o -->
<g id="id1:node14" class="node">
<title>sftests.com/triple-o</title>
<polygon fill="#3f7f68" stroke="#3f7f68" points="742,-252 608,-252 608,-216 742,-216 742,-252"/>
<text text-anchor="middle" x="675" y="-230.3" font-family="Times,serif" font-size="14.00">sftests.com/triple-o</text>
</g>
<!-- queue&#45;&gt;sftests.com/triple&#45;o -->
<g id="id1:edge43" class="edge">
<title>queue-&gt;sftests.com/triple-o</title>
<path fill="none" stroke="pink" d="M680.9,-180.1C681.7,-187.79 681.94,-197.05 681.6,-205.67"/>
<polygon fill="pink" stroke="pink" points="678.11,-205.48 680.92,-215.7 685.09,-205.96 678.11,-205.48"/>
</g>
<!-- check -->
<g id="id1:node13" class="node">
<title>check</title>
<polygon fill="#3f7f55" stroke="#3f7f55" points="458.05,-162 439.03,-180 400.97,-180 381.95,-162 400.97,-144 439.03,-144 458.05,-162"/>
<text text-anchor="middle" x="420" y="-158.3" font-family="Times,serif" font-size="14.00">check</text>
</g>
<!-- check&#45;&gt;check:sftests.com/triple&#45;o -->
<g id="id1:edge18" class="edge">
<title>check-&gt;check:sftests.com/triple-o</title>
<path fill="none" stroke="#eec900" d="M439.57,-179.92C479.15,-220.48 567.48,-327.61 615,-432 635.29,-476.58 646.7,-532.85 649.46,-565.7"/>
<polygon fill="#eec900" stroke="#eec900" points="645.98,-566.11 650.06,-575.88 652.97,-565.69 645.98,-566.11"/>
</g>
<!-- check&#45;&gt;check:sftests.com/config -->
<g id="id1:edge17" class="edge">
<title>check-&gt;check:sftests.com/config</title>
<path fill="none" stroke="#eec900" d="M391.77,-152.56C361.39,-142.48 312.65,-125.26 275.47,-111.6"/>
<polygon fill="#eec900" stroke="#eec900" points="276.39,-108.21 265.8,-108.03 273.96,-114.78 276.39,-108.21"/>
</g>
<!-- check&#45;&gt;check:common -->
<g id="id1:edge19" class="edge">
<title>check-&gt;check:common</title>
<path fill="none" stroke="#eec900" d="M425.47,-180.04C428.85,-209.56 427.39,-272.02 419,-324 413.73,-356.67 409.01,-364.15 400,-396 397.56,-404.64 394.76,-414.04 391.77,-422.48"/>
<polygon fill="#eec900" stroke="#eec900" points="388.48,-421.27 388.16,-431.86 395.02,-423.78 388.48,-421.27"/>
</g>
<!-- timer -->
<g id="id1:node22" class="node">
<title>timer</title>
<polygon fill="#6b3f7f" stroke="#6b3f7f" points="457,-102 421,-102 421,-108 403,-90 421,-72 421,-78 457,-78 457,-102"/>
<text text-anchor="middle" x="430" y="-86.3" font-family="Times,serif" font-size="14.00">timer</text>
</g>
<!-- check&#45;&gt;timer -->
<g id="id1:edge68" class="edge">
<title>check-&gt;timer</title>
<path fill="none" stroke="pink" d="M416.56,-143.7C416.86,-135.98 417.96,-126.71 419.53,-118.11"/>
<polygon fill="pink" stroke="pink" points="423,-118.61 421.66,-108.1 416.16,-117.16 423,-118.61"/>
</g>
<!-- elastic -->
<g id="id1:node23" class="node">
<title>elastic</title>
<polygon fill="#7e3f7f" stroke="#7e3f7f" points="345.5,-246 308.5,-246 308.5,-222 345.5,-222 345.5,-216 363.5,-234 345.5,-252 345.5,-246"/>
<text text-anchor="middle" x="336" y="-230.3" font-family="Times,serif" font-size="14.00">elastic</text>
</g>
<!-- check&#45;&gt;elastic -->
<g id="id1:edge69" class="edge">
<title>check-&gt;elastic</title>
<path fill="none" stroke="pink" d="M405.37,-180.1C395.75,-188.89 382.91,-199.73 370.86,-209.31"/>
<polygon fill="pink" stroke="pink" points="368.41,-206.78 362.68,-215.7 372.71,-212.3 368.41,-206.78"/>
</g>
<!-- sftests.com/triple&#45;o&#45;&gt;queue -->
<g id="id1:edge14" class="edge">
<title>sftests.com/triple-o-&gt;queue</title>
<path fill="none" stroke="#eec900" d="M669.08,-215.7C668.29,-207.98 668.06,-198.71 668.4,-190.11"/>
<polygon fill="#eec900" stroke="#eec900" points="671.9,-190.32 669.1,-180.1 664.92,-189.84 671.9,-190.32"/>
</g>
<!-- sftests.com/triple&#45;o&#45;&gt;check:sftests.com/triple&#45;o -->
<g id="id1:edge15" class="edge">
<title>sftests.com/triple-o-&gt;check:sftests.com/triple-o</title>
<path fill="none" stroke="#eec900" d="M686.43,-252.27C697.85,-278.79 712,-331.27 712,-377 712,-451 712,-451 712,-451 712,-494.28 689.21,-540.13 670.37,-567.66"/>
<polygon fill="#eec900" stroke="#eec900" points="667.42,-565.77 664.42,-575.93 673.1,-569.85 667.42,-565.77"/>
</g>
<!-- sftests.com/sf&#45;jobs -->
<g id="id1:node15" class="node">
<title>sftests.com/sf-jobs</title>
<polygon fill="#3f7f68" stroke="#3f7f68" points="499,-612 371,-612 371,-576 499,-576 499,-612"/>
<text text-anchor="middle" x="435" y="-590.3" font-family="Times,serif" font-size="14.00">sftests.com/sf-jobs</text>
</g>
<!-- sftests.com/sf&#45;jobs&#45;&gt;linter -->
<g id="id1:edge65" class="edge">
<title>sftests.com/sf-jobs-&gt;linter</title>
<path fill="none" stroke="pink" d="M420.17,-575.7C412.58,-566.84 403.23,-555.93 395.01,-546.34"/>
<polygon fill="pink" stroke="pink" points="397.6,-543.99 388.43,-538.67 392.28,-548.54 397.6,-543.99"/>
</g>
<!-- sftests.com/sf&#45;jobs&#45;&gt;pod&#45;centos&#45;7 -->
<g id="id1:edge66" class="edge">
<title>sftests.com/sf-jobs-&gt;pod-centos-7</title>
<path fill="none" stroke="pink" d="M445.61,-575.87C460.88,-551.24 489.14,-505.64 506.96,-476.88"/>
<polygon fill="pink" stroke="pink" points="510.05,-478.53 512.35,-468.19 504.1,-474.85 510.05,-478.53"/>
</g>
<!-- sftests.com/config -->
<g id="id1:node16" class="node">
<title>sftests.com/config</title>
<polygon fill="#3f7f68" stroke="#3f7f68" points="383.5,-324 258.5,-324 258.5,-288 383.5,-288 383.5,-324"/>
<text text-anchor="middle" x="321" y="-302.3" font-family="Times,serif" font-size="14.00">sftests.com/config</text>
</g>
<!-- sftests.com/config&#45;&gt;base -->
<g id="id1:edge47" class="edge">
<title>sftests.com/config-&gt;base</title>
<path fill="none" stroke="pink" d="M262.86,-324.04C207.96,-344.13 134,-383.37 134,-449 134,-595 134,-595 134,-595 134,-693.45 489.37,-726.39 608.56,-734.67"/>
<polygon fill="pink" stroke="pink" points="608.48,-738.17 618.69,-735.35 608.95,-731.18 608.48,-738.17"/>
</g>
<!-- sftests.com/config&#45;&gt;zena&#45;job -->
<g id="id1:edge51" class="edge">
<title>sftests.com/config-&gt;zena-job</title>
<path fill="none" stroke="pink" d="M298.65,-324.14C288.25,-333.49 276.9,-346.01 271,-360 265.33,-373.46 262.84,-450.64 268,-468 289.79,-541.26 298.41,-569.59 362,-612 399.06,-636.72 521.17,-652.6 592.97,-660.04"/>
<polygon fill="pink" stroke="pink" points="592.88,-663.55 603.18,-661.08 593.58,-656.58 592.88,-663.55"/>
</g>
<!-- sftests.com/config&#45;&gt;wallaby&#45;job -->
<g id="id1:edge50" class="edge">
<title>sftests.com/config-&gt;wallaby-job</title>
<path fill="none" stroke="pink" d="M383.69,-299.77C467.75,-292.18 621.44,-276.32 751,-252 755.76,-251.11 760.69,-250.07 765.61,-248.96"/>
<polygon fill="pink" stroke="pink" points="766.71,-252.3 775.65,-246.6 765.11,-245.48 766.71,-252.3"/>
</g>
<!-- sftests.com/config&#45;&gt;linter -->
<g id="id1:edge49" class="edge">
<title>sftests.com/config-&gt;linter</title>
<path fill="none" stroke="pink" d="M305.39,-324.23C297.63,-333.97 289.05,-346.82 285,-360 270.89,-405.88 261.18,-426.33 285,-468 296.24,-487.66 317.93,-500.75 337.21,-509.01"/>
<polygon fill="pink" stroke="pink" points="336.12,-512.34 346.71,-512.78 338.71,-505.84 336.12,-512.34"/>
</g>
<!-- sftests.com/config&#45;&gt;config&#45;check -->
<g id="id1:edge48" class="edge">
<title>sftests.com/config-&gt;config-check</title>
<path fill="none" stroke="pink" d="M311.87,-287.88C306.99,-277.76 301.49,-264.51 299,-252 295.87,-236.31 295.15,-231.53 299,-216 312.05,-163.32 337.49,-159.02 356,-108 363.31,-87.86 368.2,-64.08 371.19,-46.17"/>
<polygon fill="pink" stroke="pink" points="374.68,-46.54 372.78,-36.12 367.76,-45.45 374.68,-46.54"/>
</g>
<!-- sftests.com/config&#45;&gt;log&#45;key -->
<g id="id1:edge52" class="edge">
<title>sftests.com/config-&gt;log-key</title>
<path fill="none" stroke="pink" d="M258.39,-294.31C208.27,-285.09 136.43,-270.36 75,-252 73.94,-251.68 72.87,-251.35 71.79,-251.01"/>
<polygon fill="pink" stroke="pink" points="72.63,-247.6 62.04,-247.68 70.37,-254.22 72.63,-247.6"/>
</g>
<!-- sftests.com/config&#45;&gt;centos -->
<g id="id1:edge53" class="edge">
<title>sftests.com/config-&gt;centos</title>
<path fill="none" stroke="pink" d="M263.44,-287.93C231.07,-278.04 190.06,-265 154,-252 152.61,-251.5 151.2,-250.98 149.78,-250.45"/>
<polygon fill="pink" stroke="pink" points="150.94,-247.15 140.35,-246.82 148.43,-253.68 150.94,-247.15"/>
</g>
<!-- sftests.com/config&#45;&gt;cloud&#45;centos&#45;7 -->
<g id="id1:edge54" class="edge">
<title>sftests.com/config-&gt;cloud-centos-7</title>
<path fill="none" stroke="pink" d="M264.22,-287.92C240.64,-279.29 213.77,-267.35 192,-252 167.15,-234.48 144.57,-207.9 129.78,-188.35"/>
<polygon fill="pink" stroke="pink" points="132.51,-186.15 123.75,-180.19 126.88,-190.31 132.51,-186.15"/>
</g>
<!-- sftests.com/config&#45;&gt;queue -->
<g id="id1:edge55" class="edge">
<title>sftests.com/config-&gt;queue</title>
<path fill="none" stroke="pink" d="M383.66,-289.46C418.46,-280.09 462.21,-267.06 500,-252 549.85,-232.14 604.57,-203.05 639.32,-183.59"/>
<polygon fill="pink" stroke="pink" points="641.14,-186.58 648.14,-178.62 637.71,-180.48 641.14,-186.58"/>
</g>
<!-- sftests.com/config&#45;&gt;check -->
<g id="id1:edge59" class="edge">
<title>sftests.com/config-&gt;check</title>
<path fill="none" stroke="pink" d="M339.76,-287.93C350.01,-278.04 362.52,-265 372,-252 386.39,-232.29 399.3,-207.74 408.1,-189.42"/>
<polygon fill="pink" stroke="pink" points="411.34,-190.75 412.43,-180.21 405.01,-187.77 411.34,-190.75"/>
</g>
<!-- sftests.com/config&#45;&gt;sftests.com/triple&#45;o -->
<g id="id1:edge57" class="edge">
<title>sftests.com/config-&gt;sftests.com/triple-o</title>
<path fill="none" stroke="pink" d="M383.88,-292.57C443.66,-280.74 533.73,-262.94 597.83,-250.26"/>
<polygon fill="pink" stroke="pink" points="598.76,-253.64 607.89,-248.27 597.4,-246.78 598.76,-253.64"/>
</g>
<!-- sftests.com/config&#45;&gt;sftests.com/config -->
<g id="id1:edge56" class="edge">
<title>sftests.com/config-&gt;sftests.com/config</title>
<path fill="none" stroke="pink" d="M383.78,-318.55C394.26,-316.79 401.5,-312.61 401.5,-306 401.5,-301.77 398.53,-298.53 393.64,-296.29"/>
<polygon fill="pink" stroke="pink" points="394.36,-292.85 383.78,-293.45 392.42,-299.58 394.36,-292.85"/>
</g>
<!-- sftests.com/config&#45;&gt;check:sftests.com/triple&#45;o -->
<g id="id1:edge61" class="edge">
<title>sftests.com/config-&gt;check:sftests.com/triple-o</title>
<path fill="none" stroke="pink" d="M383.72,-323.16C441.63,-341.01 526.51,-375.04 580,-432 615.48,-469.78 603.9,-492.22 624,-540 627.63,-548.64 631.68,-558.03 635.35,-566.48"/>
<polygon fill="pink" stroke="pink" points="632.24,-568.09 639.44,-575.86 638.65,-565.29 632.24,-568.09"/>
</g>
<!-- sftests.com/config&#45;&gt;check:sftests.com/config -->
<g id="id1:edge13" class="edge">
<title>sftests.com/config-&gt;check:sftests.com/config</title>
<path fill="none" stroke="#eec900" d="M281.91,-287.88C268.84,-278.45 256.11,-265.85 248,-252 223.09,-209.44 212.73,-152.05 213.92,-118.54"/>
<polygon fill="#eec900" stroke="#eec900" points="217.45,-118.39 214.77,-108.14 210.47,-117.82 217.45,-118.39"/>
</g>
<!-- sftests.com/config&#45;&gt;check:sftests.com/config -->
<g id="id1:edge60" class="edge">
<title>sftests.com/config-&gt;check:sftests.com/config</title>
<path fill="none" stroke="pink" d="M298.01,-287.88C286.84,-278.45 274.11,-265.85 266,-252 240.98,-209.26 230.64,-151.56 226.53,-118.1"/>
<polygon fill="pink" stroke="pink" points="230.01,-117.68 225.41,-108.14 223.05,-118.47 230.01,-117.68"/>
</g>
<!-- common -->
<g id="id1:node20" class="node">
<title>common</title>
<polygon fill="#413f7f" stroke="#413f7f" points="364,-396 294,-396 294,-360 364,-360 364,-396"/>
<text text-anchor="middle" x="329" y="-374.3" font-family="Times,serif" font-size="14.00">common</text>
</g>
<!-- sftests.com/config&#45;&gt;common -->
<g id="id1:edge12" class="edge">
<title>sftests.com/config-&gt;common</title>
<path fill="none" stroke="#eec900" d="M322.95,-324.1C323.83,-331.79 324.89,-341.05 325.88,-349.67"/>
<polygon fill="#eec900" stroke="#eec900" points="322.41,-350.16 327.02,-359.7 329.36,-349.36 322.41,-350.16"/>
</g>
<!-- sftests.com/config&#45;&gt;common -->
<g id="id1:edge58" class="edge">
<title>sftests.com/config-&gt;common</title>
<path fill="none" stroke="pink" d="M334.74,-324.1C337.23,-331.79 338.77,-341.05 339.08,-349.67"/>
<polygon fill="pink" stroke="pink" points="335.58,-349.62 338.85,-359.7 342.58,-349.78 335.58,-349.62"/>
</g>
<!-- sftests.com/config&#45;&gt;check:common -->
<g id="id1:edge62" class="edge">
<title>sftests.com/config-&gt;check:common</title>
<path fill="none" stroke="pink" d="M344.62,-324.15C355.38,-333.42 367.04,-345.87 373,-360 381.23,-379.52 381.22,-403.66 379.44,-421.87"/>
<polygon fill="pink" stroke="pink" points="375.96,-421.48 378.23,-431.83 382.91,-422.32 375.96,-421.48"/>
</g>
<!-- sftests.com/config&#45;&gt;timer -->
<g id="id1:edge63" class="edge">
<title>sftests.com/config-&gt;timer</title>
<path fill="none" stroke="pink" d="M356.11,-287.85C392.42,-267.8 446.6,-230.78 467,-180 472.97,-165.15 471.8,-159.26 467,-144 463.9,-134.15 458.25,-124.53 452.28,-116.25"/>
<polygon fill="pink" stroke="pink" points="454.91,-113.94 446.04,-108.15 449.37,-118.21 454.91,-113.94"/>
</g>
<!-- sftests.com/config&#45;&gt;elastic -->
<g id="id1:edge64" class="edge">
<title>sftests.com/config-&gt;elastic</title>
<path fill="none" stroke="pink" d="M324.71,-287.7C326.36,-279.98 328.35,-270.71 330.19,-262.11"/>
<polygon fill="pink" stroke="pink" points="333.66,-262.62 332.33,-252.1 326.82,-261.15 333.66,-262.62"/>
</g>
<!-- localhost/project&#45;config -->
<g id="id1:node17" class="node">
<title>localhost/project-config</title>
<polygon fill="#3f7f68" stroke="#3f7f68" points="1019.5,-828 858.5,-828 858.5,-792 1019.5,-792 1019.5,-828"/>
<text text-anchor="middle" x="939" y="-806.3" font-family="Times,serif" font-size="14.00">localhost/project-config</text>
</g>
<!-- localhost/project&#45;config&#45;&gt;base -->
<g id="id1:edge44" class="edge">
<title>localhost/project-config-&gt;base</title>
<path fill="none" stroke="pink" d="M867.94,-791.97C809.56,-777.97 729.24,-758.72 683.26,-747.69"/>
<polygon fill="pink" stroke="pink" points="683.98,-744.27 673.44,-745.34 682.35,-751.07 683.98,-744.27"/>
</g>
<!-- localhost/project&#45;config&#45;&gt;rhel -->
<g id="id1:edge45" class="edge">
<title>localhost/project-config-&gt;rhel</title>
<path fill="none" stroke="pink" d="M939,-791.87C939,-767.67 939,-723.21 939,-694.39"/>
<polygon fill="pink" stroke="pink" points="942.5,-694.19 939,-684.19 935.5,-694.19 942.5,-694.19"/>
</g>
<!-- localhost/project&#45;config&#45;&gt;cloud&#45;rhel&#45;7 -->
<g id="id1:edge46" class="edge">
<title>localhost/project-config-&gt;cloud-rhel-7</title>
<path fill="none" stroke="pink" d="M947.24,-791.75C960.25,-762.43 983.28,-700.92 975,-648 973.64,-639.31 971.1,-630.1 968.39,-621.84"/>
<polygon fill="pink" stroke="pink" points="971.67,-620.62 965.07,-612.33 965.06,-622.93 971.67,-620.62"/>
</g>
<!-- check:sftests.com/triple&#45;o&#45;&gt;zena&#45;job -->
<g id="id1:edge23" class="edge">
<title>check:sftests.com/triple-o-&gt;zena-job</title>
<path fill="none" stroke="#eec900" d="M652.91,-612.28C653.71,-620.03 653.94,-629.36 653.59,-638.01"/>
<polygon fill="#eec900" stroke="#eec900" points="650.09,-637.83 652.88,-648.05 657.08,-638.33 650.09,-637.83"/>
</g>
<!-- check:sftests.com/triple&#45;o&#45;&gt;wallaby&#45;job -->
<g id="id1:edge22" class="edge">
<title>check:sftests.com/triple-o-&gt;wallaby-job</title>
<path fill="none" stroke="#eec900" d="M667.65,-575.91C698.2,-552.25 751,-506.14 751,-451 751,-451 751,-451 751,-377 751,-333.27 774.87,-287.21 794.36,-259.8"/>
<polygon fill="#eec900" stroke="#eec900" points="797.32,-261.69 800.5,-251.59 791.71,-257.5 797.32,-261.69"/>
</g>
<!-- check:sftests.com/triple&#45;o&#45;&gt;linter -->
<g id="id1:edge21" class="edge">
<title>check:sftests.com/triple-o-&gt;linter</title>
<path fill="none" stroke="#eec900" d="M578.47,-576.85C525.85,-563.7 455.28,-545.47 412.52,-533.96"/>
<polygon fill="#eec900" stroke="#eec900" points="413.36,-530.56 402.79,-531.33 411.53,-537.32 413.36,-530.56"/>
</g>
<!-- check:sftests.com/triple&#45;o&#45;&gt;check -->
<g id="id1:edge73" class="edge">
<title>check:sftests.com/triple-o-&gt;check</title>
<path fill="none" stroke="pink" d="M639.31,-575.88C631.17,-545.73 619.58,-481.62 597,-432 552.47,-334.18 472.09,-233.94 436.87,-188.35"/>
<polygon fill="pink" stroke="pink" points="439.51,-186.03 430.64,-180.23 433.95,-190.29 439.51,-186.03"/>
</g>
<!-- check:sftests.com/triple&#45;o&#45;&gt;sftests.com/triple&#45;o -->
<g id="id1:edge72" class="edge">
<title>check:sftests.com/triple-o-&gt;sftests.com/triple-o</title>
<path fill="none" stroke="pink" d="M652.78,-575.93C666.01,-550.09 694,-498.97 694,-451 694,-451 694,-451 694,-377 694,-336.45 682.87,-290.59 676.9,-262.24"/>
<polygon fill="pink" stroke="pink" points="680.3,-261.39 674.9,-252.27 673.44,-262.77 680.3,-261.39"/>
</g>
<!-- check:sftests.com/config&#45;&gt;config&#45;check -->
<g id="id1:edge20" class="edge">
<title>check:sftests.com/config-&gt;config-check</title>
<path fill="none" stroke="#eec900" d="M255.04,-71.88C276.82,-61.26 306.16,-47.65 330.41,-36.9"/>
<polygon fill="#eec900" stroke="#eec900" points="332.03,-40.01 339.77,-32.78 329.21,-33.6 332.03,-40.01"/>
</g>
<!-- check:sftests.com/config&#45;&gt;check -->
<g id="id1:edge71" class="edge">
<title>check:sftests.com/config-&gt;check</title>
<path fill="none" stroke="pink" d="M277.84,-108.12C311.98,-119.87 355.07,-135.3 384.87,-146.45"/>
<polygon fill="pink" stroke="pink" points="383.85,-149.81 394.44,-150.06 386.32,-143.26 383.85,-149.81"/>
</g>
<!-- check:sftests.com/config&#45;&gt;sftests.com/config -->
<g id="id1:edge70" class="edge">
<title>check:sftests.com/config-&gt;sftests.com/config</title>
<path fill="none" stroke="pink" d="M236.05,-108.14C246.57,-138.89 256.28,-204.63 284,-252 290.09,-262.41 298.8,-272.11 306.68,-280.29"/>
<polygon fill="pink" stroke="pink" points="304.38,-282.95 313.88,-287.65 309.38,-278.05 304.38,-282.95"/>
</g>
<!-- common&#45;&gt;sftests.com/config -->
<g id="id1:edge67" class="edge">
<title>common-&gt;sftests.com/config</title>
<path fill="none" stroke="pink" d="M315.19,-359.7C312.72,-351.98 311.21,-342.71 310.91,-334.11"/>
<polygon fill="pink" stroke="pink" points="314.41,-334.19 311.16,-324.1 307.41,-334.01 314.41,-334.19"/>
</g>
<!-- common&#45;&gt;check:common -->
<g id="id1:edge16" class="edge">
<title>common-&gt;check:common</title>
<path fill="none" stroke="#eec900" d="M346.14,-396.1C352.25,-404.13 358.87,-413.87 364.34,-422.8"/>
<polygon fill="#eec900" stroke="#eec900" points="361.47,-424.83 369.54,-431.7 367.52,-421.3 361.47,-424.83"/>
</g>
<!-- check:common&#45;&gt;linter -->
<g id="id1:edge24" class="edge">
<title>check:common-&gt;linter</title>
<path fill="none" stroke="#eec900" d="M380.91,-468.28C381.71,-476.03 381.94,-485.36 381.59,-494.01"/>
<polygon fill="#eec900" stroke="#eec900" points="378.09,-493.83 380.88,-504.05 385.08,-494.33 378.09,-493.83"/>
</g>
<!-- check:common&#45;&gt;check -->
<g id="id1:edge75" class="edge">
<title>check:common-&gt;check</title>
<path fill="none" stroke="pink" d="M372.52,-431.86C374.53,-421.5 378.6,-408.02 382,-396 391.01,-364.15 395.73,-356.67 401,-324 408.54,-277.3 410.48,-222.14 413.52,-190.01"/>
<polygon fill="pink" stroke="pink" points="417,-190.36 414.6,-180.04 410.04,-189.61 417,-190.36"/>
</g>
<!-- check:common&#45;&gt;common -->
<g id="id1:edge74" class="edge">
<title>check:common-&gt;common</title>
<path fill="none" stroke="pink" d="M357.71,-431.7C351.59,-423.64 344.97,-413.89 339.53,-404.98"/>
<polygon fill="pink" stroke="pink" points="342.41,-402.98 334.34,-396.1 336.36,-406.51 342.41,-402.98"/>
</g>
<!-- timer&#45;&gt;check -->
<g id="id1:edge25" class="edge">
<title>timer-&gt;check</title>
<path fill="none" stroke="#eec900" d="M433.45,-108.1C433.16,-115.79 432.07,-125.05 430.51,-133.67"/>
<polygon fill="#eec900" stroke="#eec900" points="427.03,-133.19 428.39,-143.7 433.88,-134.64 427.03,-133.19"/>
</g>
<!-- elastic&#45;&gt;check -->
<g id="id1:edge26" class="edge">
<title>elastic-&gt;check</title>
<path fill="none" stroke="#eec900" d="M350.85,-215.7C361.66,-205.84 376.45,-193.44 389.65,-183.15"/>
<polygon fill="#eec900" stroke="#eec900" points="391.79,-185.91 397.61,-177.05 387.54,-180.35 391.79,-185.91"/>
</g>
</g>
</g>
</svg>
