<?xml version="1.0" encoding="UTF-8" standalone="no"?>
<!DOCTYPE svg PUBLIC "-//W3C//DTD SVG 1.1//EN"
 "http://www.w3.org/Graphics/SVG/1.1/DTD/svg11.dtd">
<!-- Generated by graphviz version 5.0.0 (0)
 -->
<!-- Title: calligraphy Pages: 1 -->
<svg width="932pt" height="508pt"
 viewBox="0.00 0.00 931.81 508.00" xmlns="http://www.w3.org/2000/svg" xmlns:xlink="http://www.w3.org/1999/xlink">
<g id="graph0" class="graph" transform="scale(1 1) rotate(0) translate(4 504)">
<title>calligraphy</title>
<polygon fill="white" stroke="transparent" points="-4,4 -4,-504 927.81,-504 927.81,4 -4,4"/>
<g id="clust1" class="cluster">
<title>cluster_0_0</title>
</g>
<g id="clust2" class="cluster">
<title>cluster_1_0</title>
</g>
<g id="clust3" class="cluster">
<title>cluster_2_0</title>
</g>
<g id="clust4" class="cluster">
<title>cluster_3_0</title>
</g>
<g id="clust5" class="cluster">
<title>cluster_4_0</title>
</g>
<g id="clust6" class="cluster">
<title>cluster_5_0</title>
</g>
<g id="clust7" class="cluster">
<title>cluster_6_0</title>
</g>
<g id="clust8" class="cluster">
<title>cluster_7_0</title>
</g>
<g id="clust9" class="cluster">
<title>cluster_8_0</title>
</g>
<g id="clust10" class="cluster">
<title>cluster_9_0</title>
</g>
<g id="clust11" class="cluster">
<title>cluster_10_0</title>
</g>
<g id="clust12" class="cluster">
<title>cluster_11_0</title>
</g>
<g id="clust13" class="cluster">
<title>cluster_12_0</title>
</g>
<g id="clust14" class="cluster">
<title>cluster_13_0</title>
</g>
<!-- 0&#45;&gt;270 -->
<g id="edge10" class="edge">
<title>0&#45;&gt;270</title>
<path fill="none" stroke="black" d="M779,-149.67C779,-141.05 779,-131.79 779,-124.1"/>
<polygon fill="black" stroke="black" points="775.5,-149.7 779,-159.7 782.5,-149.7 775.5,-149.7"/>
</g>
<!-- 7&#45;&gt;277 -->
<g id="edge11" class="edge">
<title>7&#45;&gt;277</title>
<path fill="none" stroke="black" d="M454.17,-227.44C435.82,-216.91 413.07,-204.47 394.47,-194.83"/>
<polygon fill="black" stroke="black" points="452.64,-230.6 463.04,-232.59 456.15,-224.54 452.64,-230.6"/>
</g>
<!-- 105&#45;&gt;375 -->
<g id="edge13" class="edge">
<title>105&#45;&gt;375</title>
<path fill="none" stroke="black" d="M300.12,-106C304.7,-106 309.27,-106 313.85,-106"/>
<polygon fill="black" stroke="black" points="300.11,-102.5 290.11,-106 300.11,-109.5 300.11,-102.5"/>
</g>
<!-- 143&#45;&gt;413 -->
<g id="edge15" class="edge">
<title>143&#45;&gt;413</title>
<path fill="none" stroke="black" d="M429.6,-437.67C429.94,-429.05 429.7,-419.79 428.9,-412.1"/>
<polygon fill="black" stroke="black" points="426.11,-437.48 428.92,-447.7 433.09,-437.96 426.11,-437.48"/>
</g>
<!-- 170&#45;&gt;440 -->
<g id="edge16" class="edge">
<title>170&#45;&gt;440</title>
<path fill="none" stroke="black" d="M724.6,-365.67C724.94,-357.05 724.7,-347.79 723.9,-340.1"/>
<polygon fill="black" stroke="black" points="721.11,-365.48 723.92,-375.7 728.09,-365.96 721.11,-365.48"/>
</g>
<!-- 191&#45;&gt;461 -->
<g id="edge18" class="edge">
<title>191&#45;&gt;461</title>
<path fill="none" stroke="black" d="M379.03,-297.91C366.57,-287.6 351.26,-275.73 338.44,-266.51"/>
<polygon fill="black" stroke="black" points="376.85,-300.64 386.75,-304.41 381.36,-295.29 376.85,-300.64"/>
</g>
<!-- 236&#45;&gt;506 -->
<g id="edge20" class="edge">
<title>236&#45;&gt;506</title>
<path fill="none" stroke="black" d="M356.92,-34C406.34,-34 455.76,-34 505.18,-34"/>
<polygon fill="black" stroke="black" points="356.7,-30.5 346.7,-34 356.7,-37.5 356.7,-30.5"/>
</g>
<!-- 270&#45;&gt;506 -->
<g id="edge21" class="edge">
<title>270&#45;&gt;506</title>
<path fill="none" stroke="black" d="M722.83,-86.54C685.67,-74.33 637.9,-58.63 604.89,-47.78"/>
<polygon fill="black" stroke="black" points="721.93,-89.93 732.52,-89.72 724.11,-83.28 721.93,-89.93"/>
</g>
<!-- 277&#45;&gt;7 -->
<g id="edge1" class="edge">
<title>277&#45;&gt;7</title>
<path fill="none" stroke="black" d="M392.57,-200.41C411.04,-211.02 434.03,-223.59 452.76,-233.29"/>
<polygon fill="black" stroke="black" points="394.32,-197.38 383.91,-195.39 390.81,-203.43 394.32,-197.38"/>
</g>
<!-- 277&#45;&gt;105 -->
<g id="edge27" class="edge">
<title>277&#45;&gt;105</title>
<path fill="none" stroke="black" stroke-dasharray="1,5" d="M314.33,-157.39C288.74,-146.4 257.26,-132.88 233.36,-122.61"/>
<polygon fill="black" stroke="black" points="313.26,-160.73 323.83,-161.46 316.02,-154.3 313.26,-160.73"/>
</g>
<!-- 277&#45;&gt;236 -->
<g id="edge5" class="edge">
<title>277&#45;&gt;236</title>
<path fill="none" stroke="black" d="M262.4,-173.5C195.03,-168.8 113.81,-157.78 92,-132 77.07,-114.36 77.62,-98.09 92,-80 108.94,-58.68 178.47,-46.56 229.46,-40.39"/>
<polygon fill="black" stroke="black" points="262.44,-177.02 272.65,-174.18 262.9,-170.03 262.44,-177.02"/>
</g>
<!-- 277&#45;&gt;375 -->
<g id="edge14" class="edge">
<title>277&#45;&gt;375</title>
<path fill="none" stroke="black" d="M376.98,-151.71C383.1,-142.6 389.85,-132.54 395.4,-124.28"/>
<polygon fill="black" stroke="black" points="374.05,-149.8 371.38,-160.05 379.86,-153.7 374.05,-149.8"/>
</g>
<!-- 277&#45;&gt;506 -->
<g id="edge22" class="edge">
<title>277&#45;&gt;506</title>
<path fill="none" stroke="black" d="M442.32,-164.9C466.65,-158.25 492.08,-147.95 512,-132 538.18,-111.03 553.72,-73.76 560.98,-52.03"/>
<polygon fill="black" stroke="black" points="441.16,-161.59 432.34,-167.45 442.89,-168.37 441.16,-161.59"/>
</g>
<!-- 375&#45;&gt;105 -->
<g id="edge2" class="edge">
<title>375&#45;&gt;105</title>
<path fill="none" stroke="black" d="M303.83,-106C299.26,-106 294.68,-106 290.11,-106"/>
<polygon fill="black" stroke="black" points="303.85,-109.5 313.85,-106 303.85,-102.5 303.85,-109.5"/>
</g>
<!-- 375&#45;&gt;236 -->
<g id="edge6" class="edge">
<title>375&#45;&gt;236</title>
<path fill="none" stroke="black" d="M370.15,-83.68C351.61,-72.96 329.55,-60.19 312.67,-50.43"/>
<polygon fill="black" stroke="black" points="368.53,-86.79 378.94,-88.76 372.03,-80.73 368.53,-86.79"/>
</g>
<!-- 375&#45;&gt;506 -->
<g id="edge23" class="edge">
<title>375&#45;&gt;506</title>
<path fill="none" stroke="black" d="M451.97,-85.2C478,-73.74 510.15,-59.59 533.68,-49.23"/>
<polygon fill="black" stroke="black" points="450.42,-82.06 442.68,-89.29 453.25,-88.46 450.42,-82.06"/>
</g>
<!-- 413&#45;&gt;143 -->
<g id="edge3" class="edge">
<title>413&#45;&gt;143</title>
<path fill="none" stroke="black" d="M416.4,-422.11C416.06,-430.71 416.29,-439.98 417.08,-447.7"/>
<polygon fill="black" stroke="black" points="419.9,-422.32 417.1,-412.1 412.92,-421.84 419.9,-422.32"/>
</g>
<!-- 413&#45;&gt;236 -->
<g id="edge7" class="edge">
<title>413&#45;&gt;236</title>
<path fill="none" stroke="black" d="M347.84,-383.47C226.28,-365.92 0,-323.52 0,-251 0,-251 0,-251 0,-177 0,-125.83 19.78,-108.9 62,-80 88.84,-61.63 173.22,-48.33 230.4,-41.14"/>
<polygon fill="black" stroke="black" points="347.44,-386.94 357.83,-384.89 348.43,-380.01 347.44,-386.94"/>
</g>
<!-- 413&#45;&gt;440 -->
<g id="edge17" class="edge">
<title>413&#45;&gt;440</title>
<path fill="none" stroke="black" d="M485.99,-378.77C524.22,-370.06 573.96,-358.58 618,-348 633.49,-344.28 650.29,-340.12 665.63,-336.28"/>
<polygon fill="black" stroke="black" points="485,-375.4 476.03,-381.04 486.56,-382.23 485,-375.4"/>
</g>
<!-- 413&#45;&gt;461 -->
<g id="edge19" class="edge">
<title>413&#45;&gt;461</title>
<path fill="none" stroke="black" d="M364.92,-375.74C351.28,-369.11 338.09,-360.11 329,-348 311.48,-324.66 310.23,-289.22 311.33,-268.26"/>
<polygon fill="black" stroke="black" points="363.84,-379.09 374.39,-379.96 366.68,-372.7 363.84,-379.09"/>
</g>
<!-- 413&#45;&gt;506 -->
<g id="edge24" class="edge">
<title>413&#45;&gt;506</title>
<path fill="none" stroke="black" d="M477.9,-375.94C531.17,-355.57 604,-315.86 604,-251 604,-251 604,-251 604,-177 604,-130.55 584.79,-78.38 573.69,-52.09"/>
<polygon fill="black" stroke="black" points="476.38,-372.78 468.21,-379.52 478.8,-379.34 476.38,-372.78"/>
</g>
<!-- 440&#45;&gt;170 -->
<g id="edge28" class="edge">
<title>440&#45;&gt;170</title>
<path fill="none" stroke="black" stroke-dasharray="1,5" d="M711.4,-350.11C711.06,-358.71 711.29,-367.98 712.08,-375.7"/>
<polygon fill="black" stroke="black" points="714.9,-350.32 712.1,-340.1 707.92,-349.84 714.9,-350.32"/>
</g>
<!-- 440&#45;&gt;236 -->
<g id="edge29" class="edge">
<title>440&#45;&gt;236</title>
<path fill="none" stroke="black" stroke-dasharray="1,5" d="M703.81,-294.94C674.93,-244.55 604.13,-133.98 512,-80 461.09,-50.17 393.82,-39.77 345.94,-36.32"/>
<polygon fill="black" stroke="black" points="700.91,-296.91 708.87,-303.9 707.01,-293.47 700.91,-296.91"/>
</g>
<!-- 440&#45;&gt;461 -->
<g id="edge30" class="edge">
<title>440&#45;&gt;461</title>
<path fill="none" stroke="black" stroke-dasharray="1,5" d="M629.24,-313.72C561.88,-307.05 467.3,-295.24 386,-276 373.62,-273.07 360.37,-268.87 348.61,-264.75"/>
<polygon fill="black" stroke="black" points="629.1,-317.22 639.4,-314.71 629.78,-310.25 629.1,-317.22"/>
</g>
<!-- 440&#45;&gt;506 -->
<g id="edge25" class="edge">
<title>440&#45;&gt;506</title>
<path fill="none" stroke="black" d="M772.16,-302.76C815.4,-284.99 873.06,-253.35 900,-204 926.41,-155.63 936.27,-121.49 900,-80 865.19,-40.19 713.04,-34.16 626.59,-34.06"/>
<polygon fill="black" stroke="black" points="770.62,-299.6 762.62,-306.55 773.2,-306.11 770.62,-299.6"/>
</g>
<!-- 461&#45;&gt;191 -->
<g id="edge4" class="edge">
<title>461&#45;&gt;191</title>
<path fill="none" stroke="black" d="M335.83,-273.98C348.3,-284.3 363.67,-296.21 376.53,-305.46"/>
<polygon fill="black" stroke="black" points="338.01,-271.24 328.11,-267.47 333.5,-276.59 338.01,-271.24"/>
</g>
<!-- 461&#45;&gt;236 -->
<g id="edge8" class="edge">
<title>461&#45;&gt;236</title>
<path fill="none" stroke="black" d="M252.23,-237.62C195.83,-223.49 115.04,-193.31 77,-132 64.82,-112.36 62.48,-97.98 77,-80 95.71,-56.83 173.11,-45.02 228.26,-39.44"/>
<polygon fill="black" stroke="black" points="251.57,-241.06 262.11,-240 253.21,-234.26 251.57,-241.06"/>
</g>
<!-- 461&#45;&gt;277 -->
<g id="edge12" class="edge">
<title>461&#45;&gt;277</title>
<path fill="none" stroke="black" d="M329.98,-223.71C336.1,-214.6 342.85,-204.54 348.4,-196.28"/>
<polygon fill="black" stroke="black" points="327.05,-221.8 324.38,-232.05 332.86,-225.7 327.05,-221.8"/>
</g>
<!-- 461&#45;&gt;506 -->
<g id="edge26" class="edge">
<title>461&#45;&gt;506</title>
<path fill="none" stroke="black" d="M359.92,-232.4C368.56,-229.49 377.53,-226.58 386,-224 419.01,-213.96 430.52,-220.16 461,-204 504.14,-181.12 518.91,-173.89 544,-132 558.99,-106.96 563.78,-72.71 565.3,-52.32"/>
<polygon fill="black" stroke="black" points="358.69,-229.12 350.35,-235.65 360.94,-235.74 358.69,-229.12"/>
</g>
<!-- 506&#45;&gt;236 -->
<g id="edge9" class="edge">
<title>506&#45;&gt;236</title>
<path fill="none" stroke="black" d="M494.97,-34C445.54,-34 396.12,-34 346.7,-34"/>
<polygon fill="black" stroke="black" points="495.18,-37.5 505.18,-34 495.18,-30.5 495.18,-37.5"/>
</g>
<!-- 0 -->
<g id="node1" class="node">
<title>0</title>
<ellipse fill="#ffffff" fill-opacity="0.811765" stroke="black" cx="779" cy="-178" rx="108.58" ry="18"/>
<text text-anchor="middle" x="779" y="-174.3" font-family="Times,serif" font-size="14.00">ZuulWeeder.Monitoring</text>
</g>
<!-- 7 -->
<g id="node2" class="node">
<title>7</title>
<ellipse fill="#ffffff" fill-opacity="0.811765" stroke="black" cx="487" cy="-250" rx="89.08" ry="18"/>
<text text-anchor="middle" x="487" y="-246.3" font-family="Times,serif" font-size="14.00">ZuulWeeder.Graph</text>
</g>
<!-- 105 -->
<g id="node3" class="node">
<title>105</title>
<ellipse fill="#ffffff" fill-opacity="0.811765" stroke="black" cx="197" cy="-106" rx="92.88" ry="18"/>
<text text-anchor="middle" x="197" y="-102.3" font-family="Times,serif" font-size="14.00">ZuulWeeder.UI.App</text>
</g>
<!-- 143 -->
<g id="node4" class="node">
<title>143</title>
<ellipse fill="#ffffff" fill-opacity="0.811765" stroke="black" cx="423" cy="-466" rx="75.29" ry="18"/>
<text text-anchor="middle" x="423" y="-462.3" font-family="Times,serif" font-size="14.00">Zuul.ZooKeeper</text>
</g>
<!-- 170 -->
<g id="node5" class="node">
<title>170</title>
<ellipse fill="#ffffff" fill-opacity="0.811765" stroke="black" cx="718" cy="-394" rx="85.59" ry="18"/>
<text text-anchor="middle" x="718" y="-390.3" font-family="Times,serif" font-size="14.00">Zuul.ServiceConfig</text>
</g>
<!-- 191 -->
<g id="node6" class="node">
<title>191</title>
<ellipse fill="#ffffff" fill-opacity="0.811765" stroke="black" cx="402" cy="-322" rx="61.19" ry="18"/>
<text text-anchor="middle" x="402" y="-318.3" font-family="Times,serif" font-size="14.00">Zuul.Tenant</text>
</g>
<!-- 236 -->
<g id="node7" class="node">
<title>236</title>
<ellipse fill="#ffffff" fill-opacity="0.811765" stroke="black" cx="286" cy="-34" rx="60.39" ry="18"/>
<text text-anchor="middle" x="286" y="-30.3" font-family="Times,serif" font-size="14.00">ZuulWeeder</text>
</g>
<!-- 270 -->
<g id="node8" class="node">
<title>270</title>
<ellipse fill="#ffffff" fill-opacity="0.811765" stroke="black" cx="779" cy="-106" rx="108.58" ry="18"/>
<text text-anchor="middle" x="779" y="-102.3" font-family="Times,serif" font-size="14.00">ZuulWeeder.Monitoring</text>
</g>
<!-- 277 -->
<g id="node9" class="node">
<title>277</title>
<ellipse fill="#ffffff" fill-opacity="0.811765" stroke="black" cx="360" cy="-178" rx="89.08" ry="18"/>
<text text-anchor="middle" x="360" y="-174.3" font-family="Times,serif" font-size="14.00">ZuulWeeder.Graph</text>
</g>
<!-- 375 -->
<g id="node10" class="node">
<title>375</title>
<ellipse fill="#ffffff" fill-opacity="0.811765" stroke="black" cx="407" cy="-106" rx="92.88" ry="18"/>
<text text-anchor="middle" x="407" y="-102.3" font-family="Times,serif" font-size="14.00">ZuulWeeder.UI.App</text>
</g>
<!-- 413 -->
<g id="node11" class="node">
<title>413</title>
<ellipse fill="#ffffff" fill-opacity="0.811765" stroke="black" cx="423" cy="-394" rx="75.29" ry="18"/>
<text text-anchor="middle" x="423" y="-390.3" font-family="Times,serif" font-size="14.00">Zuul.ZooKeeper</text>
</g>
<!-- 440 -->
<g id="node12" class="node">
<title>440</title>
<ellipse fill="#ffffff" fill-opacity="0.811765" stroke="black" cx="718" cy="-322" rx="85.59" ry="18"/>
<text text-anchor="middle" x="718" y="-318.3" font-family="Times,serif" font-size="14.00">Zuul.ServiceConfig</text>
</g>
<!-- 461 -->
<g id="node13" class="node">
<title>461</title>
<ellipse fill="#ffffff" fill-opacity="0.811765" stroke="black" cx="313" cy="-250" rx="61.19" ry="18"/>
<text text-anchor="middle" x="313" y="-246.3" font-family="Times,serif" font-size="14.00">Zuul.Tenant</text>
</g>
<!-- 506 -->
<g id="node14" class="node">
<title>506</title>
<ellipse fill="#ffffff" fill-opacity="0.811765" stroke="black" cx="566" cy="-34" rx="60.39" ry="18"/>
<text text-anchor="middle" x="566" y="-30.3" font-family="Times,serif" font-size="14.00">ZuulWeeder</text>
</g>
</g>
</svg>
