<?xml version="1.0" encoding="UTF-8" standalone="no"?>
<!DOCTYPE svg PUBLIC "-//W3C//DTD SVG 1.1//EN"
 "http://www.w3.org/Graphics/SVG/1.1/DTD/svg11.dtd">
<!-- Generated by graphviz version 2.49.3 (0)
 -->
<!-- Title: calligraphy Pages: 1 -->
<svg width="574pt" height="436pt"
 viewBox="0.00 0.00 573.63 436.00" xmlns="http://www.w3.org/2000/svg" xmlns:xlink="http://www.w3.org/1999/xlink">
<g id="graph0" class="graph" transform="scale(1 1) rotate(0) translate(4 432)">
<title>calligraphy</title>
<polygon fill="white" stroke="transparent" points="-4,4 -4,-432 569.63,-432 569.63,4 -4,4"/>
<g id="clust1" class="cluster">
<title>cluster_0_0</title>
</g>
<g id="clust2" class="cluster">
<title>cluster_1_0</title>
</g>
<g id="clust3" class="cluster">
<title>cluster_2_0</title>
</g>
<g id="clust4" class="cluster">
<title>cluster_3_0</title>
</g>
<g id="clust5" class="cluster">
<title>cluster_4_0</title>
</g>
<g id="clust6" class="cluster">
<title>cluster_5_0</title>
</g>
<g id="clust7" class="cluster">
<title>cluster_6_0</title>
</g>
<!-- 0&#45;&gt;248 -->
<g id="edge5" class="edge">
<title>0&#45;&gt;248</title>
<path fill="none" stroke="black" d="M198.47,-89.23C261.18,-75.76 349.54,-56.79 403.4,-45.22"/>
<polygon fill="black" stroke="black" points="197.67,-85.82 188.63,-91.34 199.14,-92.66 197.67,-85.82"/>
</g>
<!-- 7&#45;&gt;50 -->
<g id="edge2" class="edge">
<title>7&#45;&gt;50</title>
<path fill="none" stroke="black" d="M344.5,-149.95C341.77,-141.26 338.82,-131.88 336.38,-124.1"/>
<polygon fill="black" stroke="black" points="341.22,-151.21 347.56,-159.7 347.9,-149.11 341.22,-151.21"/>
</g>
<!-- 7&#45;&gt;248 -->
<g id="edge6" class="edge">
<title>7&#45;&gt;248</title>
<path fill="none" stroke="black" d="M391.3,-155.23C400.34,-148.69 409.29,-140.86 416,-132 434.38,-107.74 443.78,-72.93 448.03,-52.27"/>
<polygon fill="black" stroke="black" points="389.32,-152.34 383.03,-160.87 393.27,-158.13 389.32,-152.34"/>
</g>
<!-- 50&#45;&gt;248 -->
<g id="edge7" class="edge">
<title>50&#45;&gt;248</title>
<path fill="none" stroke="black" d="M367,-84C385.56,-73.17 407.78,-60.21 424.7,-50.34"/>
<polygon fill="black" stroke="black" points="365.1,-81.05 358.23,-89.12 368.63,-87.1 365.1,-81.05"/>
</g>
<!-- 162&#45;&gt;187 -->
<g id="edge3" class="edge">
<title>162&#45;&gt;187</title>
<path fill="none" stroke="black" d="M449,-365.67C449,-357.05 449,-347.79 449,-340.1"/>
<polygon fill="black" stroke="black" points="445.5,-365.7 449,-375.7 452.5,-365.7 445.5,-365.7"/>
</g>
<!-- 162&#45;&gt;208 -->
<g id="edge4" class="edge">
<title>162&#45;&gt;208</title>
<path fill="none" stroke="black" d="M386.85,-377.11C372.72,-370.47 359.41,-361.12 351,-348 338.53,-328.54 343.5,-317.86 351,-296 354.66,-285.33 362,-275.24 369.02,-267.33"/>
<polygon fill="black" stroke="black" points="385.64,-380.4 396.21,-381.09 388.38,-373.95 385.64,-380.4"/>
</g>
<!-- 162&#45;&gt;248 -->
<g id="edge8" class="edge">
<title>162&#45;&gt;248</title>
<path fill="none" stroke="black" d="M508.89,-376.5C523.33,-369.84 537.36,-360.64 547,-348 573.51,-313.27 563,-294.69 563,-251 563,-251 563,-251 563,-177 563,-120.8 508.24,-73.77 475.3,-50.56"/>
<polygon fill="black" stroke="black" points="507.23,-373.4 499.38,-380.52 509.95,-379.85 507.23,-373.4"/>
</g>
<!-- 187&#45;&gt;208 -->
<g id="edge11" class="edge">
<title>187&#45;&gt;208</title>
<path fill="none" stroke="black" stroke-dasharray="1,5" d="M426.89,-296.43C418.36,-286.96 408.83,-276.36 401.11,-267.79"/>
<polygon fill="black" stroke="black" points="424.46,-298.96 433.75,-304.05 429.66,-294.28 424.46,-298.96"/>
</g>
<!-- 187&#45;&gt;248 -->
<g id="edge9" class="edge">
<title>187&#45;&gt;248</title>
<path fill="none" stroke="black" d="M459.41,-294.36C475.48,-249.33 502.27,-155.65 480,-80 477.01,-69.84 470.93,-59.8 465.11,-51.79"/>
<polygon fill="black" stroke="black" points="456.05,-293.38 455.88,-303.97 462.62,-295.79 456.05,-293.38"/>
</g>
<!-- 208&#45;&gt;7 -->
<g id="edge1" class="edge">
<title>208&#45;&gt;7</title>
<path fill="none" stroke="black" d="M373.68,-222.86C369.49,-213.98 364.92,-204.29 361.14,-196.28"/>
<polygon fill="black" stroke="black" points="370.58,-224.5 378.01,-232.05 376.91,-221.52 370.58,-224.5"/>
</g>
<!-- 208&#45;&gt;248 -->
<g id="edge10" class="edge">
<title>208&#45;&gt;248</title>
<path fill="none" stroke="black" d="M429.11,-229.61C439.05,-222.98 448.35,-214.51 454,-204 480.67,-154.37 465.65,-84.12 456.47,-52.1"/>
<polygon fill="black" stroke="black" points="427.02,-226.79 420.29,-234.97 430.65,-232.77 427.02,-226.79"/>
</g>
<!-- 0 -->
<g id="node1" class="node">
<title>0</title>
<ellipse fill="#ffffff" fill-opacity="0.811765" stroke="black" cx="125" cy="-106" rx="108.58" ry="18"/>
<text text-anchor="middle" x="125" y="-102.3" font-family="Times,serif" font-size="14.00">ZuulWeeder.Monitoring</text>
</g>
<!-- 7 -->
<g id="node2" class="node">
<title>7</title>
<ellipse fill="#ffffff" fill-opacity="0.811765" stroke="black" cx="353" cy="-178" rx="89.08" ry="18"/>
<text text-anchor="middle" x="353" y="-174.3" font-family="Times,serif" font-size="14.00">ZuulWeeder.Graph</text>
</g>
<!-- 50 -->
<g id="node3" class="node">
<title>50</title>
<ellipse fill="#ffffff" fill-opacity="0.811765" stroke="black" cx="331" cy="-106" rx="72.59" ry="18"/>
<text text-anchor="middle" x="331" y="-102.3" font-family="Times,serif" font-size="14.00">ZuulWeeder.UI</text>
</g>
<!-- 162 -->
<g id="node4" class="node">
<title>162</title>
<ellipse fill="#ffffff" fill-opacity="0.811765" stroke="black" cx="449" cy="-394" rx="75.29" ry="18"/>
<text text-anchor="middle" x="449" y="-390.3" font-family="Times,serif" font-size="14.00">Zuul.ZooKeeper</text>
</g>
<!-- 187 -->
<g id="node5" class="node">
<title>187</title>
<ellipse fill="#ffffff" fill-opacity="0.811765" stroke="black" cx="449" cy="-322" rx="85.59" ry="18"/>
<text text-anchor="middle" x="449" y="-318.3" font-family="Times,serif" font-size="14.00">Zuul.ServiceConfig</text>
</g>
<!-- 208 -->
<g id="node6" class="node">
<title>208</title>
<ellipse fill="#ffffff" fill-opacity="0.811765" stroke="black" cx="386" cy="-250" rx="61.19" ry="18"/>
<text text-anchor="middle" x="386" y="-246.3" font-family="Times,serif" font-size="14.00">Zuul.Tenant</text>
</g>
<!-- 248 -->
<g id="node7" class="node">
<title>248</title>
<ellipse fill="#ffffff" fill-opacity="0.811765" stroke="black" cx="451" cy="-34" rx="60.39" ry="18"/>
<text text-anchor="middle" x="451" y="-30.3" font-family="Times,serif" font-size="14.00">ZuulWeeder</text>
</g>
</g>
</svg>
